<?xml version="1.0" encoding="UTF-8"?>
<svg id="Layer_2" data-name="Layer 2" xmlns="http://www.w3.org/2000/svg" xmlns:xlink="http://www.w3.org/1999/xlink" viewBox="0 0 1581.06 165.97">
  <defs>
    <style>
      .cls-1 {
        fill: url(#linear-gradient);
        stroke-width: 0px;
      }

      .cls-2 {
        fill: none;
        stroke: #fff;
        stroke-miterlimit: 10;
        stroke-width: 1.09px;
      }
    </style>
    <linearGradient id="linear-gradient" x1="6.14" y1="47.42" x2="1581.06" y2="47.42" gradientUnits="userSpaceOnUse">
      <stop offset="0" stop-color="#f4ad33"/>
      <stop offset=".14" stop-color="#f4a432"/>
      <stop offset=".37" stop-color="#f68b31"/>
      <stop offset=".66" stop-color="#fa6430"/>
      <stop offset="1" stop-color="#ff2e2e"/>
    </linearGradient>
  </defs>
  <g id="Layer_1-2" data-name="Layer 1">
    <g>
      <g>
        <path class="cls-1" d="M6.14,93.45v-20.2h20.46v20.2H6.14Z"/>
        <path class="cls-1" d="M41.87,93.45V4.42h14.65l48.36,61.5h-3.41V4.42h18.31v89.03h-14.65L56.9,31.95h3.28v61.5h-18.31Z"/>
        <path class="cls-1" d="M137.84,93.45V4.42h61.88v15.28h-43.06v20.84h40.03v15.41h-40.03v22.22h43.06v15.28h-61.88Z"/>
        <path class="cls-1" d="M234.07,93.45V20.46h-28.29V4.42h76.27v16.04h-28.29v72.99h-19.7Z"/>
        <path class="cls-1" d="M371.46,94.84c-9.51,0-17.68-1.89-24.5-5.68-6.82-3.79-12.06-9.11-15.72-15.97-3.66-6.86-5.49-14.96-5.49-24.31s1.83-17.43,5.49-24.25c3.66-6.82,8.9-12.12,15.72-15.91,6.82-3.79,14.98-5.68,24.5-5.68,6.14,0,11.74.86,16.79,2.59,5.05,1.73,9.34,4.23,12.88,7.51l-6.19,15.53c-3.87-3.03-7.56-5.18-11.05-6.44-3.5-1.26-7.43-1.89-11.81-1.89-8.33,0-14.71,2.46-19.13,7.39-4.42,4.92-6.63,11.98-6.63,21.15s2.21,16.25,6.63,21.21c4.42,4.97,10.8,7.45,19.13,7.45,4.38,0,8.31-.63,11.81-1.89,3.49-1.26,7.18-3.41,11.05-6.44l6.19,15.53c-3.54,3.2-7.83,5.68-12.88,7.45-5.05,1.77-10.65,2.65-16.79,2.65Z"/>
        <path class="cls-1" d="M439.52,94.84c-6.82,0-12.73-1.37-17.74-4.1-5.01-2.73-8.88-6.59-11.62-11.55-2.74-4.97-4.1-10.9-4.1-17.81s1.37-12.71,4.1-17.68c2.73-4.97,6.61-8.8,11.62-11.49,5.01-2.69,10.92-4.04,17.74-4.04s12.75,1.35,17.81,4.04c5.05,2.7,8.94,6.53,11.68,11.49,2.73,4.97,4.1,10.86,4.1,17.68s-1.37,12.84-4.1,17.81c-2.74,4.97-6.63,8.82-11.68,11.55s-10.99,4.1-17.81,4.1ZM439.52,80.44c4.38,0,7.85-1.56,10.42-4.67,2.57-3.11,3.85-7.91,3.85-14.4s-1.28-11.24-3.85-14.27c-2.57-3.03-6.04-4.55-10.42-4.55s-7.85,1.52-10.42,4.55c-2.57,3.03-3.85,7.79-3.85,14.27s1.28,11.28,3.85,14.4c2.57,3.12,6.04,4.67,10.42,4.67Z"/>
        <path class="cls-1" d="M485.49,93.45v-47.35c0-2.69-.08-5.45-.25-8.27-.17-2.82-.42-5.62-.76-8.4h18.31l1.39,11.87h-1.52c2.1-4.21,5.09-7.45,8.97-9.72,3.87-2.27,8.38-3.41,13.51-3.41,7.49,0,13.11,2.17,16.86,6.5,3.75,4.34,5.62,11.05,5.62,20.14v38.64h-19.07v-37.76c0-4.63-.84-7.91-2.53-9.85-1.68-1.94-4.21-2.9-7.58-2.9-4.21,0-7.58,1.33-10.1,3.98s-3.79,6.21-3.79,10.67v35.86h-19.07Z"/>
        <path class="cls-1" d="M567.69,93.45v-49.75h-12.12v-14.27h17.55l-5.43,4.92v-9.22c0-8.33,2.17-14.6,6.5-18.82,4.33-4.21,10.84-6.31,19.51-6.31,1.94,0,4.02.13,6.25.38,2.23.25,4.19.76,5.87,1.52v14.65c-1.18-.42-2.53-.74-4.04-.95-1.51-.21-2.99-.32-4.42-.32-1.94,0-3.73.34-5.37,1.01-1.64.67-2.95,1.79-3.92,3.35-.97,1.56-1.45,3.64-1.45,6.25v6.69l-2.65-3.16h18.82v14.27h-16.04v49.75h-19.07Z"/>
        <path class="cls-1" d="M648.63,93.45v-14.52l28.29-29.42c3.54-3.7,6.1-6.99,7.7-9.85,1.6-2.86,2.4-5.81,2.4-8.84,0-3.79-1.22-6.65-3.66-8.59-2.44-1.94-5.94-2.9-10.48-2.9-3.79,0-7.51.69-11.18,2.08-3.66,1.39-7.26,3.52-10.8,6.38l-6.19-14.4c3.7-3.2,8.29-5.72,13.76-7.58,5.47-1.85,11.15-2.78,17.05-2.78,9.93,0,17.55,2.21,22.86,6.63,5.3,4.42,7.96,10.71,7.96,18.88,0,5.47-1.26,10.69-3.79,15.66-2.53,4.97-6.61,10.23-12.25,15.78l-22.73,22.35v-5.05h42.18v16.16h-61.12Z"/>
        <path class="cls-1" d="M753.07,94.84c-10.69,0-18.92-4.02-24.69-12.06-5.77-8.04-8.65-19.38-8.65-34.03s2.88-26.24,8.65-34.03c5.77-7.79,14-11.68,24.69-11.68s19.02,3.89,24.75,11.68c5.72,7.79,8.59,19.09,8.59,33.91s-2.86,26.12-8.59,34.16c-5.73,8.04-13.98,12.06-24.75,12.06ZM753.07,78.92c4.88,0,8.52-2.42,10.92-7.26,2.4-4.84,3.6-12.52,3.6-23.05s-1.2-18.1-3.6-22.73c-2.4-4.63-6.04-6.95-10.92-6.95s-8.52,2.32-10.92,6.95c-2.4,4.63-3.6,12.17-3.6,22.6s1.22,18.33,3.66,23.17c2.44,4.84,6.06,7.26,10.86,7.26Z"/>
        <path class="cls-1" d="M800.17,93.45v-14.52l28.29-29.42c3.54-3.7,6.1-6.99,7.7-9.85,1.6-2.86,2.4-5.81,2.4-8.84,0-3.79-1.22-6.65-3.66-8.59-2.44-1.94-5.94-2.9-10.48-2.9-3.79,0-7.51.69-11.18,2.08-3.66,1.39-7.26,3.52-10.8,6.38l-6.19-14.4c3.7-3.2,8.29-5.72,13.76-7.58,5.47-1.85,11.15-2.78,17.05-2.78,9.93,0,17.55,2.21,22.86,6.63,5.3,4.42,7.96,10.71,7.96,18.88,0,5.47-1.26,10.69-3.79,15.66-2.53,4.97-6.61,10.23-12.25,15.78l-22.73,22.35v-5.05h42.18v16.16h-61.12Z"/>
        <path class="cls-1" d="M909.4,93.45v-16.29h-38.14v-13.64l41.17-59.1h15.91v57.96h12.12v14.77h-12.12v16.29h-18.94ZM909.4,62.38V27.66h3.16l-27.15,39.27v-4.55h23.99Z"/>
        <path class="cls-1" d="M986.17,66.04v-14.9h39.78v14.9h-39.78Z"/>
        <path class="cls-1" d="M1108.03,93.45l-40.03-89.03h21.21l30.43,71.22h-6.19l30.43-71.22h20.46l-40.03,89.03h-16.29Z"/>
        <path class="cls-1" d="M1169.65,18.94V1.14h20.46v17.81h-20.46ZM1170.41,93.45V29.42h19.07v64.02h-19.07Z"/>
        <path class="cls-1" d="M1237.21,94.84c-11.11,0-19.78-2.99-26.01-8.97-6.23-5.98-9.34-14.1-9.34-24.37,0-6.65,1.33-12.46,3.98-17.43,2.65-4.97,6.36-8.86,11.11-11.68,4.75-2.82,10.33-4.23,16.73-4.23s11.6,1.35,15.85,4.04c4.25,2.7,7.45,6.46,9.6,11.3,2.15,4.84,3.22,10.46,3.22,16.86v4.42h-44.83v-9.47h30.94l-2.15,1.77c0-5.3-1.07-9.32-3.22-12.06-2.15-2.73-5.24-4.1-9.28-4.1-4.46,0-7.89,1.64-10.29,4.92s-3.6,8-3.6,14.14v2.02c0,6.23,1.54,10.86,4.61,13.89,3.07,3.03,7.51,4.55,13.32,4.55,3.45,0,6.71-.44,9.79-1.33,3.07-.88,6-2.29,8.78-4.23l5.3,12.63c-3.2,2.36-6.88,4.17-11.05,5.43-4.17,1.26-8.65,1.89-13.45,1.89Z"/>
        <path class="cls-1" d="M1304.01,94.84c-8.33,0-14.61-2.08-18.82-6.25-4.21-4.17-6.31-10.42-6.31-18.75v-26.14h-12.12v-14.27h12.12v-15.66l19.07-4.67v20.33h16.42v14.27h-16.42v25.13c0,4.04.84,6.82,2.53,8.33,1.68,1.52,3.83,2.27,6.44,2.27,1.6,0,2.92-.1,3.98-.32,1.05-.21,2.17-.52,3.35-.95v14.77c-1.6.67-3.28,1.16-5.05,1.45-1.77.29-3.49.44-5.18.44Z"/>
        <path class="cls-1" d="M1324.09,93.45v-47.35c0-2.69-.08-5.45-.25-8.27-.17-2.82-.42-5.62-.76-8.4h18.31l1.39,11.87h-1.52c2.1-4.21,5.09-7.45,8.97-9.72,3.87-2.27,8.38-3.41,13.51-3.41,7.49,0,13.11,2.17,16.86,6.5,3.75,4.34,5.62,11.05,5.62,20.14v38.64h-19.07v-37.76c0-4.63-.84-7.91-2.53-9.85-1.68-1.94-4.21-2.9-7.58-2.9-4.21,0-7.58,1.33-10.1,3.98s-3.79,6.21-3.79,10.67v35.86h-19.07Z"/>
        <path class="cls-1" d="M1426.37,94.84c-5.56,0-10.44-1.35-14.65-4.04-4.21-2.69-7.49-6.52-9.85-11.49-2.36-4.97-3.54-10.94-3.54-17.93s1.18-12.84,3.54-17.81c2.36-4.97,5.64-8.78,9.85-11.43,4.21-2.65,9.09-3.98,14.65-3.98,5.13,0,9.74,1.24,13.83,3.73,4.08,2.48,6.76,5.83,8.02,10.04h-1.39l1.52-12.5h18.31c-.25,2.78-.49,5.58-.7,8.4-.21,2.82-.32,5.58-.32,8.27v47.35h-18.94l-.13-12h1.52c-1.35,4.04-4.04,7.28-8.08,9.72-4.04,2.44-8.59,3.66-13.64,3.66ZM1432.18,80.44c4.38,0,7.91-1.56,10.61-4.67,2.69-3.11,4.04-7.91,4.04-14.4s-1.35-11.24-4.04-14.27c-2.7-3.03-6.23-4.55-10.61-4.55s-7.91,1.52-10.61,4.55c-2.7,3.03-4.04,7.79-4.04,14.27s1.33,11.28,3.98,14.4c2.65,3.12,6.21,4.67,10.67,4.67Z"/>
        <path class="cls-1" d="M1481.3,93.45v-47.35c0-2.69-.08-5.45-.25-8.27-.17-2.82-.42-5.62-.76-8.4h18.31l1.39,11.87h-1.52c1.85-4.04,4.59-7.24,8.21-9.6,3.62-2.36,7.91-3.54,12.88-3.54s8.99,1.16,12.31,3.47c3.33,2.32,5.7,5.92,7.13,10.8h-2.02c1.85-4.38,4.8-7.85,8.84-10.42,4.04-2.57,8.63-3.85,13.76-3.85,7.24,0,12.63,2.15,16.16,6.44,3.54,4.29,5.3,11.03,5.3,20.2v38.64h-19.07v-38.01c0-4.46-.72-7.66-2.15-9.6-1.43-1.94-3.75-2.9-6.95-2.9-3.79,0-6.78,1.35-8.97,4.04-2.19,2.7-3.28,6.4-3.28,11.11v35.36h-19.07v-38.01c0-4.46-.72-7.66-2.15-9.6-1.43-1.94-3.75-2.9-6.95-2.9-3.79,0-6.76,1.35-8.9,4.04-2.15,2.7-3.22,6.4-3.22,11.11v35.36h-19.07Z"/>
      </g>
      <line class="cls-2" y1="165.43" x2="1578.18" y2="165.43"/>
    </g>
  </g>
</svg>