<?xml version="1.0" encoding="UTF-8"?>
<svg id="Layer_2" xmlns="http://www.w3.org/2000/svg" viewBox="0 0 44.76 48.83">
  <defs>
    <style>
      .cls-1 {
        fill: #1c1934;
      }
    </style>
  </defs>
  <g id="Layer_3">
    <path class="cls-1" d="M28.48,36.62v12.21h-12.21v-12.21h12.21ZM32.55,36.62v12.21h2.03c5.62,0,10.17-4.56,10.17-10.17v-2.03h-12.21ZM0,36.62v2.03c0,5.62,4.56,10.17,10.17,10.17h2.03v-12.21H0ZM36.62,6.31V2.03c0-1.12-.92-2.03-2.03-2.03s-2.03.92-2.03,2.03v4.07H14.24V2.03c0-1.12-.92-2.03-2.03-2.03s-2.03.92-2.03,2.03v4.07C4.56,6.1,0,10.66,0,16.28v2.03h44.76v-2.03c0-4.92-3.5-9.03-8.14-9.97ZM32.55,22.38v10.17h12.21v-10.17h-12.21ZM16.28,22.38v10.17h12.21v-10.17h-12.21ZM0,22.38v10.17h12.21v-10.17H0Z"/>
  </g>
</svg>