<?xml version="1.0" encoding="UTF-8"?>
<svg id="Layer_2" data-name="Layer 2" xmlns="http://www.w3.org/2000/svg" viewBox="0 0 38.44 41.93">
  <defs>
    <style>
      .cls-1 {
        fill: #fff;
        stroke-width: 0px;
      }
    </style>
  </defs>
  <g id="Layer_1-2" data-name="Layer 1">
    <path class="cls-1" d="M24.46,31.45v10.48h-10.48v-10.48h10.48ZM27.95,31.45v10.48h1.75c4.82,0,8.74-3.91,8.74-8.74v-1.75h-10.48ZM0,31.45v1.75c0,4.82,3.91,8.74,8.74,8.74h1.75v-10.48H0ZM31.45,5.42V1.75c0-.96-.79-1.75-1.75-1.75s-1.75.79-1.75,1.75v3.49h-15.72V1.75c0-.96-.79-1.75-1.75-1.75s-1.75.79-1.75,1.75v3.49C3.91,5.24,0,9.15,0,13.98v1.75h38.44v-1.75c0-4.23-3.01-7.76-6.99-8.56ZM27.95,19.22v8.74h10.48v-8.74h-10.48ZM13.98,19.22v8.74h10.48v-8.74h-10.48ZM0,19.22v8.74h10.48v-8.74H0Z"/>
  </g>
</svg>