<?xml version="1.0" encoding="UTF-8"?>
<svg id="Layer_2" data-name="Layer 2" xmlns="http://www.w3.org/2000/svg" xmlns:xlink="http://www.w3.org/1999/xlink" viewBox="0 0 168.54 108.05">
  <defs>
    <style>
      .cls-1 {
        fill: url(#Cam-Đỏ);
        stroke-width: 0px;
      }
    </style>
    <linearGradient id="Cam-Đỏ" x1="74.32" y1="54.03" x2="242.86" y2="54.03" gradientUnits="userSpaceOnUse">
      <stop offset="0" stop-color="#f4ad33"/>
      <stop offset=".07" stop-color="#ef952f"/>
      <stop offset=".23" stop-color="#e86729"/>
      <stop offset=".39" stop-color="#e14224"/>
      <stop offset=".55" stop-color="#dc2520"/>
      <stop offset=".7" stop-color="#d8101e"/>
      <stop offset=".85" stop-color="#d6041c"/>
      <stop offset="1" stop-color="#d6001c"/>
    </linearGradient>
  </defs>
  <g id="Layer_1-2" data-name="Layer 1">
    <g>
      <path class="cls-1" d="M44.89,106.42v-19.17H0v-16.05L48.45,1.64h18.73v68.22h14.27v17.39h-14.27v19.17h-22.29ZM44.89,69.86V28.98h3.72l-31.96,46.22v-5.35h28.24Z"/>
      <path class="cls-1" d="M132.28,108.05c-13.48,0-23.88-4.61-31.21-13.82-7.33-9.21-11-22.15-11-38.79,0-11.69,1.88-21.67,5.65-29.95,3.76-8.27,9.14-14.59,16.13-18.95,6.99-4.36,15.38-6.54,25.19-6.54,5.65,0,11.27.97,16.87,2.9,5.6,1.93,10.48,4.73,14.64,8.4l-7.43,17.09c-3.67-3.07-7.58-5.37-11.74-6.91-4.16-1.53-8.38-2.3-12.63-2.3-8.13,0-14.32,2.68-18.58,8.03-4.26,5.35-6.39,13.33-6.39,23.93v9.66h-1.93c.79-4.76,2.43-8.79,4.91-12.11,2.48-3.32,5.65-5.87,9.51-7.65,3.86-1.78,8.12-2.68,12.78-2.68,5.95,0,11.27,1.46,15.98,4.38,4.71,2.92,8.4,6.94,11.07,12.04,2.68,5.1,4.01,10.92,4.01,17.46,0,6.94-1.54,13.1-4.61,18.5-3.07,5.4-7.26,9.64-12.56,12.71-5.3,3.07-11.52,4.61-18.65,4.61ZM131.09,90.07c3.17,0,5.95-.69,8.32-2.08,2.38-1.39,4.21-3.37,5.5-5.95,1.29-2.58,1.93-5.55,1.93-8.92s-.65-6.32-1.93-8.84c-1.29-2.53-3.12-4.51-5.5-5.95-2.38-1.44-5.15-2.16-8.32-2.16s-5.94.72-8.32,2.16c-2.38,1.44-4.24,3.42-5.57,5.95-1.34,2.53-2.01,5.48-2.01,8.84s.67,6.34,2.01,8.92c1.34,2.58,3.2,4.56,5.57,5.95,2.38,1.39,5.15,2.08,8.32,2.08Z"/>
    </g>
  </g>
</svg>