<?xml version="1.0" encoding="UTF-8"?>
<svg id="Layer_2" data-name="Layer 2" xmlns="http://www.w3.org/2000/svg" xmlns:xlink="http://www.w3.org/1999/xlink" viewBox="0 0 146.37 127.66">
  <defs>
    <style>
      .cls-1 {
        fill: url(#Cam-Đỏ-3);
      }

      .cls-1, .cls-2, .cls-3 {
        stroke-width: 0px;
      }

      .cls-4 {
        fill: none;
        stroke: #26285a;
        stroke-linecap: round;
        stroke-linejoin: round;
        stroke-width: 4.6px;
      }

      .cls-2 {
        fill: url(#Cam-Đỏ-2);
      }

      .cls-3 {
        fill: url(#Cam-Đỏ);
      }
    </style>
    <linearGradient id="Cam-Đỏ" x1="0" y1="85.25" x2="18.15" y2="85.25" gradientUnits="userSpaceOnUse">
      <stop offset="0" stop-color="#f4ad33"/>
      <stop offset=".07" stop-color="#ef952f"/>
      <stop offset=".23" stop-color="#e86729"/>
      <stop offset=".39" stop-color="#e14224"/>
      <stop offset=".55" stop-color="#dc2520"/>
      <stop offset=".7" stop-color="#d8101e"/>
      <stop offset=".85" stop-color="#d6041c"/>
      <stop offset="1" stop-color="#d6001c"/>
    </linearGradient>
    <linearGradient id="Cam-Đỏ-2" data-name="Cam-Đỏ" x1="64.08" y1="118.58" x2="82.23" y2="118.58" xlink:href="#Cam-Đỏ"/>
    <linearGradient id="Cam-Đỏ-3" data-name="Cam-Đỏ" x1="128.22" y1="85.67" x2="146.37" y2="85.67" xlink:href="#Cam-Đỏ"/>
  </defs>
  <g id="Layer_1-2" data-name="Layer 1">
    <g>
      <g>
        <line class="cls-4" x1="73.16" y1="63.81" x2="73.16" y2="109.51"/>
        <line class="cls-4" x1="60.04" y1="50.27" x2="86.27" y2="50.27"/>
        <polyline class="cls-4" points="90.64 63.81 90.64 85.67 128.22 85.67"/>
        <polyline class="cls-4" points="55.67 63.81 55.67 85.67 18.15 85.67"/>
      </g>
      <path class="cls-4" d="M105.35,66.69c11.43,0,20.7-9.27,20.7-20.7s-9.27-20.7-20.7-20.7c-2.56,0-5.01.49-7.27,1.34-2.13-13.78-14-24.34-28.37-24.34-15.54,0-28.18,12.35-28.7,27.76-.77-.1-1.55-.17-2.35-.17-10.16,0-18.4,8.24-18.4,18.4s8.24,18.4,18.4,18.4"/>
      <circle class="cls-3" cx="9.08" cy="85.25" r="9.08"/>
      <circle class="cls-2" cx="73.16" cy="118.58" r="9.08"/>
      <circle class="cls-1" cx="137.29" cy="85.67" r="9.08"/>
    </g>
  </g>
</svg>