<?xml version="1.0" encoding="UTF-8"?>
<svg id="Layer_2" data-name="Layer 2" xmlns="http://www.w3.org/2000/svg" xmlns:xlink="http://www.w3.org/1999/xlink" viewBox="0 0 116.4 122.18">
  <defs>
    <style>
      .cls-1 {
        fill: #fff;
      }

      .cls-1, .cls-2 {
        stroke-width: 0px;
      }

      .cls-2 {
        fill: url(#Cam-Đỏ);
      }

      .cls-3 {
        fill: none;
        stroke: #26285a;
        stroke-linecap: round;
        stroke-linejoin: round;
        stroke-width: 4.51px;
      }
    </style>
    <linearGradient id="Cam-Đỏ" x1="16.56" y1="53.37" x2="60.73" y2="53.37" gradientUnits="userSpaceOnUse">
      <stop offset="0" stop-color="#f4ad33"/>
      <stop offset=".07" stop-color="#ef952f"/>
      <stop offset=".23" stop-color="#e86729"/>
      <stop offset=".39" stop-color="#e14224"/>
      <stop offset=".55" stop-color="#dc2520"/>
      <stop offset=".7" stop-color="#d8101e"/>
      <stop offset=".85" stop-color="#d6041c"/>
      <stop offset="1" stop-color="#d6001c"/>
    </linearGradient>
  </defs>
  <g id="Layer_1-2" data-name="Layer 1">
    <g>
      <g>
        <g>
          <path class="cls-3" d="M42.67,53.6c0-.13.1-.24.22-.24.13,0,.24.1.24.24,0,.12-.1.22-.24.22-.12,0-.22-.1-.22-.22Z"/>
          <path class="cls-3" d="M35.03,53.6c0-.13.1-.24.24-.24.12,0,.22.1.22.24,0,.12-.1.22-.22.22-.13,0-.24-.1-.24-.22Z"/>
          <path class="cls-3" d="M27.4,53.6c0-.13.09-.24.22-.24.12,0,.22.1.22.24,0,.12-.1.22-.22.22-.13,0-.22-.1-.22-.22Z"/>
        </g>
        <path class="cls-2" d="M46.02,69.33l14.72,2.76-7.53-11.97c.87-2.33,1.3-4.87,1.2-7.51-.41-10.62-9.2-18.86-19.64-18.44-10.46.42-18.6,9.38-18.19,19.98.41,10.6,9.2,18.85,19.66,18.43,3.63-.14,6.98-1.33,9.79-3.24Z"/>
      </g>
      <g>
        <path class="cls-1" d="M44.92,57.56c-1.34,0-2.43-1.09-2.43-2.43s1.09-2.44,2.43-2.44,2.44,1.1,2.44,2.44-1.1,2.43-2.44,2.43Z"/>
        <path class="cls-1" d="M37.3,57.56c-1.35,0-2.44-1.09-2.44-2.43s1.1-2.44,2.44-2.44,2.43,1.1,2.43,2.44-1.09,2.43-2.43,2.43Z"/>
        <path class="cls-1" d="M29.66,57.56c-1.34,0-2.43-1.09-2.43-2.43s1.09-2.44,2.43-2.44,2.43,1.1,2.43,2.44-1.09,2.43-2.43,2.43Z"/>
      </g>
      <path id="rect1335" class="cls-3" d="M104.36,21.77H13.74"/>
      <path id="rect1335-2" data-name="rect1335" class="cls-3" d="M51.3,111.05H8.97c-3.72,0-6.71-3.35-6.71-7.51V9.76c0-4.16,2.99-7.51,6.71-7.51h90.62c3.72,0,6.71,3.35,6.71,7.51v27.84"/>
      <path id="path1339" class="cls-3" d="M21.41,11.84h3.36"/>
      <path id="path1341" class="cls-3" d="M34.35,11.84h3.36"/>
      <g>
        <path class="cls-3" d="M79.28,88.05c-5.39,2.4-9.49,5.75-9.49,8.11v12.68c0,4.06,12.21,11.09,22.18,11.09s22.18-7.03,22.18-11.09v-12.68c0-2.36-4.11-5.71-9.51-8.12"/>
        <path class="cls-3" d="M91.96,85.06c7.62,0,12.68-6.08,12.68-13.58v-4.53c0-7.5-5.05-13.58-12.68-13.58s-12.68,6.08-12.68,13.58v4.53c0,7.5,5.06,13.58,12.68,13.58Z"/>
      </g>
    </g>
  </g>
</svg>