<?xml version="1.0" encoding="UTF-8"?>
<svg id="Layer_2" data-name="Layer 2" xmlns="http://www.w3.org/2000/svg" xmlns:xlink="http://www.w3.org/1999/xlink" viewBox="0 0 158.88 108.05">
  <defs>
    <style>
      .cls-1 {
        fill: url(#Cam-Đỏ);
        stroke-width: 0px;
      }
    </style>
    <linearGradient id="Cam-Đỏ" x1="70.06" y1="54.03" x2="228.94" y2="54.03" gradientUnits="userSpaceOnUse">
      <stop offset="0" stop-color="#f4ad33"/>
      <stop offset=".07" stop-color="#ef952f"/>
      <stop offset=".23" stop-color="#e86729"/>
      <stop offset=".39" stop-color="#e14224"/>
      <stop offset=".55" stop-color="#dc2520"/>
      <stop offset=".7" stop-color="#d8101e"/>
      <stop offset=".85" stop-color="#d6041c"/>
      <stop offset="1" stop-color="#d6001c"/>
    </linearGradient>
  </defs>
  <g id="Layer_1-2" data-name="Layer 1">
    <g>
      <path class="cls-1" d="M0,106.42v-19.02h23.78V20.96h10.85L2.53,39.68v-21.7L30.47,1.64h16.5v85.76h22.29v19.02H0Z"/>
      <path class="cls-1" d="M118.75,108.05c-12.49,0-22.27-2.68-29.35-8.03-7.08-5.35-10.63-12.73-10.63-22.15,0-7.43,2.23-13.57,6.69-18.43,4.46-4.85,10.2-7.73,17.24-8.62v3.86c-6.34-1.39-11.47-4.43-15.38-9.14-3.92-4.71-5.87-10.38-5.87-17.02,0-8.92,3.34-15.9,10.03-20.96S107.26,0,118.75,0s20.71,2.53,27.35,7.58c6.64,5.05,9.96,12.04,9.96,20.96,0,6.74-1.86,12.48-5.57,17.24-3.72,4.76-8.65,7.63-14.79,8.62v-3.57c6.84.99,12.41,3.92,16.72,8.77,4.31,4.86,6.47,10.95,6.47,18.28,0,9.41-3.54,16.8-10.63,22.15-7.09,5.35-16.92,8.03-29.5,8.03ZM118.75,90.37c6.34,0,11.07-1.19,14.19-3.57,3.12-2.38,4.68-5.89,4.68-10.55s-1.56-8.15-4.68-10.48c-3.12-2.33-7.85-3.49-14.19-3.49s-10.95,1.17-14.12,3.49c-3.17,2.33-4.76,5.82-4.76,10.48s1.58,8.17,4.76,10.55c3.17,2.38,7.88,3.57,14.12,3.57ZM118.75,44.59c5.25,0,9.26-1.21,12.04-3.64,2.77-2.43,4.16-5.72,4.16-9.88s-1.39-7.43-4.16-9.81c-2.78-2.38-6.79-3.57-12.04-3.57s-9.12,1.19-11.89,3.57c-2.78,2.38-4.16,5.65-4.16,9.81s1.39,7.46,4.16,9.88c2.77,2.43,6.74,3.64,11.89,3.64Z"/>
    </g>
  </g>
</svg>