<?xml version="1.0" encoding="UTF-8"?>
<svg id="Layer_2" data-name="Layer 2" xmlns="http://www.w3.org/2000/svg" xmlns:xlink="http://www.w3.org/1999/xlink" viewBox="0 0 486.49 128.42">
  <defs>
    <style>
      .cls-1 {
        fill: #fff;
      }

      .cls-1, .cls-2 {
        stroke-width: 0px;
      }

      .cls-2 {
        fill: url(#Cam-Đỏ);
      }
    </style>
    <linearGradient id="Cam-Đỏ" x1="106.58" y1="67.31" x2="386.7" y2="67.31" gradientUnits="userSpaceOnUse">
      <stop offset="0" stop-color="#f4ad33"/>
      <stop offset=".07" stop-color="#ef952f"/>
      <stop offset=".23" stop-color="#e86729"/>
      <stop offset=".39" stop-color="#e14224"/>
      <stop offset=".55" stop-color="#dc2520"/>
      <stop offset=".7" stop-color="#d8101e"/>
      <stop offset=".85" stop-color="#d6041c"/>
      <stop offset="1" stop-color="#d6001c"/>
    </linearGradient>
  </defs>
  <g id="Layer_1-2" data-name="Layer 1">
    <g>
      <rect class="cls-1" width="486.49" height="128.42"/>
      <g>
        <path class="cls-2" d="M111.4,92.58c-.62,0-1.36-.04-2.22-.11-.86-.07-1.73-.2-2.6-.38v-5.59c.69.15,1.36.26,2,.33.64.07,1.18.11,1.62.11,1.68,0,2.89-.49,3.64-1.48.75-.99,1.12-2.56,1.12-4.71v-37.02h7.06v37.02c0,2.63-.37,4.82-1.09,6.57-.73,1.75-1.87,3.07-3.42,3.94-1.55.88-3.59,1.31-6.11,1.31Z"/>
        <path class="cls-2" d="M142.51,82.89c-2.85,0-5.31-.58-7.39-1.75-2.08-1.17-3.7-2.83-4.85-4.98-1.15-2.15-1.73-4.71-1.73-7.67s.58-5.5,1.73-7.64c1.15-2.14,2.77-3.79,4.85-4.96,2.08-1.17,4.54-1.75,7.39-1.75s5.32.58,7.42,1.75c2.1,1.17,3.72,2.82,4.87,4.96,1.15,2.14,1.73,4.68,1.73,7.64s-.58,5.51-1.73,7.67c-1.15,2.15-2.77,3.82-4.87,4.98-2.1,1.17-4.57,1.75-7.42,1.75ZM142.51,77.63c2.15,0,3.87-.76,5.15-2.27,1.28-1.51,1.92-3.81,1.92-6.87s-.64-5.35-1.92-6.85c-1.28-1.5-2.99-2.25-5.15-2.25s-3.87.75-5.15,2.25c-1.28,1.5-1.92,3.78-1.92,6.85s.64,5.36,1.92,6.87c1.28,1.52,2.99,2.27,5.15,2.27Z"/>
        <path class="cls-2" d="M162.06,49.48v-6.68h7.61v6.68h-7.61ZM162.44,82.34v-27.66h6.85v27.66h-6.85Z"/>
        <path class="cls-2" d="M176.73,82.34v-20.76c0-1.13-.04-2.28-.11-3.45-.07-1.17-.18-2.32-.33-3.45h6.63l.55,5.48h-.66c.88-1.93,2.17-3.42,3.89-4.46,1.72-1.04,3.71-1.56,5.97-1.56,3.25,0,5.7.91,7.34,2.74,1.64,1.83,2.46,4.67,2.46,8.54v16.92h-6.85v-16.59c0-2.23-.43-3.82-1.29-4.79-.86-.97-2.15-1.45-3.86-1.45-2.12,0-3.8.66-5.04,1.97-1.24,1.31-1.86,3.07-1.86,5.26v15.61h-6.85Z"/>
        <path class="cls-2" d="M224.05,63.01c0-4.05.74-7.56,2.22-10.51,1.48-2.96,3.6-5.25,6.38-6.87,2.77-1.62,6.08-2.44,9.91-2.44s7.08.81,9.86,2.44c2.77,1.62,4.92,3.92,6.44,6.87,1.51,2.96,2.27,6.44,2.27,10.46s-.76,7.57-2.27,10.54c-1.52,2.98-3.66,5.28-6.44,6.93-2.77,1.64-6.06,2.46-9.86,2.46s-7.13-.82-9.88-2.46c-2.76-1.64-4.88-3.95-6.38-6.93-1.5-2.98-2.25-6.47-2.25-10.49ZM231.44,63.01c0,4.35.93,7.74,2.79,10.19,1.86,2.45,4.64,3.67,8.32,3.67s6.33-1.22,8.27-3.67c1.93-2.45,2.9-5.84,2.9-10.19s-.96-7.78-2.88-10.19-4.68-3.61-8.3-3.61-6.46,1.2-8.32,3.61-2.79,5.81-2.79,10.19Z"/>
        <path class="cls-2" d="M267.86,82.34v-20.76c0-1.13-.04-2.28-.11-3.45-.07-1.17-.18-2.32-.33-3.45h6.63l.55,5.48h-.66c.88-1.93,2.17-3.42,3.89-4.46,1.72-1.04,3.71-1.56,5.97-1.56,3.25,0,5.7.91,7.34,2.74,1.64,1.83,2.46,4.67,2.46,8.54v16.92h-6.85v-16.59c0-2.23-.43-3.82-1.29-4.79-.86-.97-2.15-1.45-3.86-1.45-2.12,0-3.8.66-5.04,1.97-1.24,1.31-1.86,3.07-1.86,5.26v15.61h-6.85Z"/>
        <path class="cls-2" d="M300.88,82.34v-40.31h6.85v40.31h-6.85Z"/>
        <path class="cls-2" d="M314.79,49.48v-6.68h7.61v6.68h-7.61ZM315.18,82.34v-27.66h6.85v27.66h-6.85Z"/>
        <path class="cls-2" d="M329.47,82.34v-20.76c0-1.13-.04-2.28-.11-3.45-.07-1.17-.18-2.32-.33-3.45h6.63l.55,5.48h-.66c.88-1.93,2.17-3.42,3.89-4.46,1.72-1.04,3.71-1.56,5.97-1.56,3.25,0,5.7.91,7.34,2.74,1.64,1.83,2.46,4.67,2.46,8.54v16.92h-6.85v-16.59c0-2.23-.43-3.82-1.29-4.79-.86-.97-2.15-1.45-3.86-1.45-2.12,0-3.8.66-5.04,1.97-1.24,1.31-1.86,3.07-1.86,5.26v15.61h-6.85Z"/>
        <path class="cls-2" d="M375.86,82.89c-4.64,0-8.27-1.28-10.9-3.83-2.63-2.56-3.94-6.06-3.94-10.51,0-2.88.57-5.4,1.7-7.56,1.13-2.15,2.71-3.83,4.74-5.04,2.03-1.2,4.39-1.81,7.09-1.81s4.89.57,6.68,1.7c1.79,1.13,3.15,2.72,4.08,4.76.93,2.05,1.4,4.44,1.4,7.17v1.81h-20.15v-3.61h15.28l-.93.77c0-2.56-.54-4.51-1.62-5.86-1.08-1.35-2.64-2.03-4.68-2.03-2.26,0-4.01.8-5.23,2.41-1.22,1.61-1.83,3.85-1.83,6.74v.71c0,2.99.74,5.23,2.22,6.71,1.48,1.48,3.57,2.22,6.27,2.22,1.57,0,3.04-.21,4.41-.63,1.37-.42,2.67-1.1,3.92-2.05l2.03,4.6c-1.31,1.06-2.88,1.88-4.71,2.46-1.83.58-3.76.88-5.8.88Z"/>
      </g>
    </g>
  </g>
</svg>