<?xml version="1.0" encoding="UTF-8"?>
<svg id="Layer_2" xmlns="http://www.w3.org/2000/svg" xmlns:xlink="http://www.w3.org/1999/xlink" viewBox="0 0 372.35 103.19">
  <defs>
    <style>
      .cls-1 {
        fill: #1c1934;
      }

      .cls-2 {
        fill: url(#Cam-Đỏ);
      }
    </style>
    <linearGradient id="Cam-Đỏ" x1="207.54" y1="32.5" x2="300.07" y2="32.5" gradientUnits="userSpaceOnUse">
      <stop offset="0" stop-color="#f4ad33"/>
      <stop offset=".07" stop-color="#ef952f"/>
      <stop offset=".23" stop-color="#e86729"/>
      <stop offset=".39" stop-color="#e14224"/>
      <stop offset=".55" stop-color="#dc2520"/>
      <stop offset=".7" stop-color="#d8101e"/>
      <stop offset=".85" stop-color="#d6041c"/>
      <stop offset="1" stop-color="#d6001c"/>
    </linearGradient>
  </defs>
  <g id="Layer_3">
    <g>
      <g>
        <path class="cls-2" d="M246.52,62.82h-36.88c-4.46,0-8.09-3.63-8.09-8.09V10.27c0-4.46,3.63-8.09,8.09-8.09h44.46c4.46,0,8.09,3.63,8.09,8.09v5.2c0,2.19-1.77,3.96-3.96,3.96s-3.96-1.77-3.96-3.96v-5.2c0-.09-.09-.18-.18-.18h-44.46c-.09,0-.18.09-.18.18v44.46c0,.09.09.18.18.18h36.88c2.19,0,3.96,1.77,3.96,3.96s-1.77,3.96-3.96,3.96Z"/>
        <path class="cls-2" d="M196.56,43.89l-16.1-11.4,16.1-11.4c1.78-1.26,2.21-3.73.94-5.52-1.26-1.78-3.73-2.21-5.52-.94l-20.66,14.63s-.03.02-.04.03c-.07.05-.13.1-.2.16-.04.03-.08.07-.12.1-.05.05-.1.1-.15.15-.05.05-.09.09-.14.14-.04.04-.07.09-.11.13-.05.06-.1.12-.15.19-.01.02-.02.03-.03.04-.02.03-.03.05-.05.08-.05.07-.09.14-.13.21-.03.05-.05.1-.08.15-.03.06-.06.12-.09.19-.03.06-.05.12-.08.18-.02.05-.04.11-.06.16-.02.07-.05.14-.07.21-.01.05-.03.1-.04.15-.02.07-.03.15-.05.22,0,.05-.02.1-.03.15-.01.07-.02.14-.03.22,0,.06,0,.11-.01.17,0,.07,0,.13,0,.2,0,.07,0,.13,0,.2,0,.06,0,.11.01.17,0,.07.02.14.03.22,0,.05.02.1.03.15.01.07.03.15.05.22.01.05.03.1.04.15.02.07.04.14.07.21.02.06.04.11.06.16.02.06.05.12.08.18.03.06.06.13.09.19.03.05.05.1.08.15.04.07.09.14.13.21.02.03.03.05.05.08,0,.01.02.02.03.04.08.1.16.2.24.3.02.02.03.04.05.06.1.11.21.21.32.31.04.04.08.07.13.1.06.05.12.1.18.14l20.66,14.63c.69.49,1.49.73,2.28.73,1.24,0,2.46-.58,3.23-1.67,1.26-1.78.84-4.25-.94-5.52Z"/>
        <g>
          <circle class="cls-2" cx="220.93" cy="32.49" r="3.71"/>
          <circle class="cls-2" cx="231.87" cy="32.49" r="3.71"/>
          <circle class="cls-2" cx="242.81" cy="32.49" r="3.71"/>
        </g>
      </g>
      <g>
        <g>
          <path class="cls-1" d="M290.2,27.71c-1.02-2.27-2.58-4.14-4.69-5.61-2.77-1.93-6.05-2.89-9.86-2.89s-7.02.87-9.81,2.6c-2.8,1.73-4.96,4.22-6.5,7.46-1.54,3.24-2.31,7.16-2.31,11.74s.77,8.42,2.31,11.66c1.54,3.24,3.7,5.75,6.5,7.51,2.8,1.76,6.07,2.64,9.81,2.64s6.93-.95,9.73-2.85c2.05-1.39,3.58-3.17,4.61-5.32v7.41h6.79V29.69c0-1.56.07-3.17.21-4.82.14-1.65.29-3.28.46-4.91h-6.54l-.72,7.75ZM286.55,53.13c-2.35,2.77-5.54,4.15-9.56,4.15s-7.14-1.38-9.52-4.15c-2.38-2.77-3.56-6.81-3.56-12.12s1.19-9.44,3.56-12.2c2.38-2.77,5.55-4.15,9.52-4.15s7.21,1.38,9.56,4.15c2.35,2.77,3.52,6.84,3.52,12.2s-1.17,9.35-3.52,12.12Z"/>
          <path class="cls-1" d="M326.05,0c-4.47,0-7.91,1.26-10.32,3.78-2.4,2.52-3.61,6.15-3.61,10.9v5.28h-8.22v5.28h8.22v36.82h6.79V25.25h11.74v-5.28h-11.74v-4.7c0-2.18.31-3.97.92-5.37.61-1.4,1.54-2.45,2.77-3.15,1.23-.7,2.71-1.05,4.45-1.05,1.01,0,2,.1,2.98.29.98.2,1.8.43,2.47.71V1.09c-.78-.34-1.78-.6-2.98-.8-1.2-.2-2.36-.29-3.48-.29Z"/>
          <path class="cls-1" d="M372.35,39.17c0-4.08-.7-7.62-2.1-10.61-1.4-2.99-3.41-5.3-6.04-6.92-2.63-1.62-5.87-2.43-9.73-2.43s-7.38.91-10.4,2.73c-3.02,1.82-5.37,4.36-7.05,7.63-1.68,3.27-2.52,7.12-2.52,11.53,0,6.82,1.9,12.15,5.7,15.98,3.8,3.83,9,5.75,15.6,5.75,3.13,0,6.11-.49,8.93-1.47,2.82-.98,5.16-2.36,7-4.15l-2.35-4.78c-2.01,1.73-4.12,2.98-6.33,3.73-2.21.76-4.57,1.13-7.09,1.13-4.7,0-8.35-1.35-10.95-4.07-2.53-2.64-3.82-6.49-3.89-11.53h31.19v-2.52ZM344.67,28.64c2.35-2.94,5.62-4.4,9.81-4.4,3.97,0,6.96,1.26,8.97,3.77,1.84,2.31,2.83,5.45,2.99,9.39h-25.12c.4-3.54,1.51-6.47,3.34-8.76Z"/>
        </g>
        <g>
          <path class="cls-1" d="M51.16,17.45c-2.45-4.42-6.07-7.82-10.86-10.18-4.79-2.37-10.65-3.55-17.58-3.55H0v59.57h22.73c6.93,0,12.79-1.2,17.58-3.59,4.79-2.39,8.41-5.82,10.86-10.27,2.45-4.45,3.68-9.77,3.68-15.97s-1.22-11.59-3.68-16.01ZM36.8,47.78c-3.24,3.13-8.18,4.69-14.83,4.69h-8.79V14.45h8.79c6.65,0,11.59,1.55,14.83,4.65,3.24,3.1,4.86,7.89,4.86,14.36s-1.62,11.2-4.86,14.32Z"/>
          <polygon class="cls-1" points="106.55 13.94 106.55 3.71 65.15 3.71 65.15 63.29 106.55 63.29 106.55 53.06 77.74 53.06 77.74 38.19 104.52 38.19 104.52 27.88 77.74 27.88 77.74 13.94 106.55 13.94"/>
          <polygon class="cls-1" points="159.28 3.71 140.98 46.53 122.69 3.71 108.49 3.71 135.28 63.29 146.18 63.29 172.96 3.71 159.28 3.71"/>
        </g>
        <g>
          <path class="cls-1" d="M52.34,89.82c.87,0,1.64.14,2.29.41.66.28,1.32.71,1.97,1.32l.52-1.01c-.59-.62-1.28-1.08-2.07-1.4-.79-.32-1.7-.47-2.72-.47-1.4,0-2.58.29-3.55.88-.97.58-1.71,1.42-2.22,2.5-.51,1.08-.77,2.37-.77,3.88s.25,2.8.77,3.89c.51,1.09,1.25,1.92,2.22,2.51.97.58,2.16.88,3.55.88,1.01,0,1.91-.16,2.71-.47.8-.32,1.49-.78,2.08-1.4l-.52-1.01c-.66.6-1.32,1.04-1.97,1.32-.66.28-1.42.41-2.29.41-1.71,0-3-.54-3.89-1.61-.89-1.07-1.33-2.58-1.33-4.51s.44-3.43,1.33-4.5c.89-1.07,2.18-1.6,3.89-1.6Z"/>
          <path class="cls-1" d="M72.97,89.55c-.96-.58-2.1-.88-3.41-.88s-2.49.29-3.44.88c-.95.58-1.68,1.42-2.18,2.5-.5,1.08-.76,2.37-.76,3.88s.25,2.78.77,3.87c.51,1.09,1.24,1.93,2.19,2.52.95.59,2.09.89,3.42.89s2.43-.3,3.39-.89c.96-.59,1.7-1.43,2.23-2.52.52-1.09.79-2.38.79-3.89s-.26-2.77-.78-3.86c-.52-1.08-1.26-1.91-2.21-2.5ZM73.3,100.44c-.9,1.08-2.15,1.62-3.75,1.62s-2.91-.54-3.77-1.62c-.86-1.08-1.29-2.59-1.29-4.52s.43-3.45,1.29-4.52c.86-1.07,2.11-1.6,3.77-1.6s2.86.53,3.75,1.6c.89,1.07,1.34,2.57,1.34,4.52s-.45,3.44-1.35,4.52Z"/>
          <polygon class="cls-1" points="93.23 100.97 84.17 88.83 83.17 88.83 83.17 103.03 84.31 103.03 84.31 90.87 93.39 103.03 94.38 103.03 94.38 88.83 93.23 88.83 93.23 100.97"/>
          <polygon class="cls-1" points="112.22 100.97 103.16 88.83 102.15 88.83 102.15 103.03 103.3 103.03 103.3 90.87 112.38 103.03 113.37 103.03 113.37 88.83 112.22 88.83 112.22 100.97"/>
          <polygon class="cls-1" points="121.14 103.03 129.96 103.03 129.96 101.96 122.35 101.96 122.35 96.36 129.52 96.36 129.52 95.3 122.35 95.3 122.35 89.9 129.96 89.9 129.96 88.83 121.14 88.83 121.14 103.03"/>
          <path class="cls-1" d="M142.85,89.82c.87,0,1.64.14,2.29.41.66.28,1.32.71,1.97,1.32l.52-1.01c-.59-.62-1.28-1.08-2.07-1.4-.79-.32-1.7-.47-2.72-.47-1.4,0-2.58.29-3.55.88-.97.58-1.71,1.42-2.22,2.5-.51,1.08-.77,2.37-.77,3.88s.25,2.8.77,3.89c.51,1.09,1.25,1.92,2.22,2.51.97.58,2.16.88,3.55.88,1.01,0,1.91-.16,2.71-.47.8-.32,1.49-.78,2.08-1.4l-.52-1.01c-.66.6-1.32,1.04-1.97,1.32-.66.28-1.42.41-2.29.41-1.71,0-3-.54-3.89-1.61-.89-1.07-1.33-2.58-1.33-4.51s.44-3.43,1.33-4.5c.89-1.07,2.18-1.6,3.89-1.6Z"/>
          <polygon class="cls-1" points="152.79 89.92 157.95 89.92 157.95 103.03 159.2 103.03 159.2 89.92 164.33 89.92 164.33 88.83 152.79 88.83 152.79 89.92"/>
          <path class="cls-1" d="M184.5,88.83l-6.18,14.2h1.31l1.6-3.79h7.73l1.64,3.79h1.31l-6.28-14.2h-1.13ZM185.05,90.34h.04l3.42,7.83h-6.8l3.34-7.83Z"/>
          <polygon class="cls-1" points="208.42 100.97 199.36 88.83 198.36 88.83 198.36 103.03 199.5 103.03 199.5 90.87 208.59 103.03 209.57 103.03 209.57 88.83 208.42 88.83 208.42 100.97"/>
          <path class="cls-1" d="M225.78,89.65c-1.07-.54-2.39-.82-3.95-.82h-4.49v14.2h4.49c1.56,0,2.87-.27,3.95-.82,1.07-.54,1.89-1.35,2.45-2.41.56-1.06.84-2.36.84-3.89s-.28-2.82-.84-3.88c-.56-1.05-1.37-1.85-2.45-2.4ZM226.26,100.42c-.99,1-2.5,1.5-4.53,1.5h-3.14v-12h3.14c2.03,0,3.54.5,4.53,1.49.99.99,1.49,2.5,1.49,4.51s-.5,3.5-1.49,4.5Z"/>
          <path class="cls-1" d="M250.95,95.76l-2.07-.42c-.98-.2-1.69-.5-2.12-.91-.44-.4-.65-.97-.65-1.69,0-.9.34-1.61,1.03-2.14.68-.53,1.61-.8,2.78-.8.89,0,1.68.13,2.38.39.7.26,1.36.69,1.99,1.28l.5-1.01c-.59-.59-1.3-1.04-2.12-1.34-.83-.3-1.74-.45-2.75-.45s-1.89.17-2.66.5-1.36.81-1.79,1.43c-.43.62-.64,1.34-.64,2.17,0,1.02.32,1.83.96,2.42.64.59,1.61,1.02,2.91,1.29l2.05.42c1.09.21,1.85.51,2.28.88.44.37.65.9.65,1.6,0,.81-.32,1.45-.95,1.94-.63.49-1.57.74-2.82.74-.7,0-1.32-.06-1.87-.17-.55-.11-1.06-.29-1.52-.53-.46-.24-.94-.55-1.42-.93l-.52,1.03c.69.56,1.46.99,2.34,1.29.87.3,1.88.44,3.02.44,1.03,0,1.93-.16,2.68-.48.75-.32,1.33-.78,1.74-1.36.41-.58.61-1.26.61-2.02,0-1.01-.32-1.78-.97-2.32-.64-.54-1.66-.96-3.04-1.24Z"/>
          <polygon class="cls-1" points="272.17 95.28 263.05 95.28 263.05 88.83 261.8 88.83 261.8 103.03 263.05 103.03 263.05 96.38 272.17 96.38 272.17 103.03 273.42 103.03 273.42 88.83 272.17 88.83 272.17 95.28"/>
          <path class="cls-1" d="M286,88.83l-6.18,14.2h1.31l1.6-3.79h7.73l1.64,3.79h1.31l-6.28-14.2h-1.13ZM286.55,90.34h.04l3.42,7.83h-6.8l3.34-7.83Z"/>
          <path class="cls-1" d="M307.91,96.76c-.25-.15-.54-.25-.83-.31.33-.07.64-.18.93-.31.64-.3,1.15-.74,1.51-1.31.36-.57.54-1.26.54-2.06,0-1.25-.4-2.21-1.21-2.9s-1.94-1.03-3.4-1.03h-5.6v14.2h1.25v-6.32h3.62c.75,0,1.37.1,1.85.29s.85.63,1.11,1.32l1.85,4.71h1.37l-1.97-4.93c-.26-.63-.6-1.08-1.03-1.34ZM301.11,95.66v-5.76h4.19c1.14,0,2.01.25,2.61.73.6.49.9,1.21.9,2.14s-.3,1.64-.9,2.13c-.6.5-1.47.74-2.61.74h-4.19Z"/>
          <polygon class="cls-1" points="326.56 89.9 326.56 88.83 317.74 88.83 317.74 103.03 326.56 103.03 326.56 101.96 318.95 101.96 318.95 96.36 326.11 96.36 326.11 95.3 318.95 95.3 318.95 89.9 326.56 89.9"/>
        </g>
      </g>
    </g>
  </g>
</svg>