<?xml version="1.0" encoding="UTF-8"?>
<svg id="Layer_2" data-name="Layer 2" xmlns="http://www.w3.org/2000/svg" xmlns:xlink="http://www.w3.org/1999/xlink" viewBox="0 0 475.17 131.68">
  <defs>
    <style>
      .cls-1 {
        fill: #fff;
      }

      .cls-1, .cls-2 {
        stroke-width: 0px;
      }

      .cls-2 {
        fill: url(#Cam-Đỏ);
      }
    </style>
    <linearGradient id="Cam-Đỏ" x1="264.85" y1="41.47" x2="382.93" y2="41.47" gradientUnits="userSpaceOnUse">
      <stop offset="0" stop-color="#f4ad33"/>
      <stop offset=".07" stop-color="#ef952f"/>
      <stop offset=".23" stop-color="#e86729"/>
      <stop offset=".39" stop-color="#e14224"/>
      <stop offset=".55" stop-color="#dc2520"/>
      <stop offset=".7" stop-color="#d8101e"/>
      <stop offset=".85" stop-color="#d6041c"/>
      <stop offset="1" stop-color="#d6001c"/>
    </linearGradient>
  </defs>
  <g id="Layer_1-2" data-name="Layer 1">
    <g>
      <g>
        <path class="cls-2" d="M314.59,80.17h-47.07c-5.69,0-10.33-4.63-10.33-10.33V13.11c0-5.69,4.63-10.33,10.33-10.33h56.73c5.69,0,10.33,4.63,10.33,10.33v6.64c0,2.79-2.26,5.05-5.05,5.05s-5.05-2.26-5.05-5.05v-6.64c0-.11-.12-.23-.23-.23h-56.73c-.11,0-.23.11-.23.23v56.73c0,.11.12.23.23.23h47.07c2.79,0,5.05,2.26,5.05,5.05s-2.26,5.05-5.05,5.05Z"/>
        <path class="cls-2" d="M250.83,56.01l-20.54-14.55,20.54-14.55c2.28-1.61,2.81-4.76,1.2-7.04-1.61-2.28-4.76-2.81-7.04-1.2l-26.36,18.67s-.03.03-.05.04c-.09.06-.17.13-.26.2-.05.04-.1.08-.15.13-.07.06-.13.12-.2.19-.06.06-.12.12-.18.18-.05.05-.09.11-.14.16-.07.08-.13.16-.19.24-.01.02-.03.04-.04.06-.02.03-.04.07-.06.1-.06.09-.11.17-.17.26-.04.06-.07.12-.1.19-.04.08-.08.16-.12.24-.04.08-.07.15-.1.23-.03.07-.06.14-.08.21-.03.09-.06.18-.09.27-.02.06-.04.13-.05.19-.02.09-.04.19-.06.28-.01.07-.02.13-.03.2-.01.09-.03.18-.03.28,0,.07-.01.15-.02.22,0,.08,0,.17,0,.25,0,.08,0,.17,0,.25,0,.07,0,.15.02.22,0,.09.02.18.03.28,0,.07.02.13.03.2.02.09.04.19.06.28.02.06.03.13.05.19.03.09.05.18.09.27.02.07.05.14.08.21.03.08.06.15.1.23.04.08.08.16.12.24.03.06.07.13.1.19.05.09.11.18.17.26.02.03.04.07.06.1.01.02.03.03.04.05.1.13.2.26.31.38.02.02.04.05.06.07.13.14.26.27.41.39.05.04.11.08.16.13.08.06.15.12.23.18l26.36,18.67c.89.63,1.9.93,2.91.93,1.58,0,3.14-.74,4.13-2.13,1.61-2.28,1.07-5.43-1.2-7.04Z"/>
        <g>
          <circle class="cls-2" cx="281.93" cy="41.46" r="4.74"/>
          <circle class="cls-2" cx="295.89" cy="41.46" r="4.74"/>
          <circle class="cls-2" cx="309.85" cy="41.46" r="4.74"/>
        </g>
      </g>
      <g>
        <g>
          <path class="cls-1" d="M370.33,35.36c-1.3-2.89-3.3-5.28-5.99-7.16-3.53-2.46-7.72-3.69-12.58-3.69s-8.95,1.11-12.52,3.32c-3.57,2.21-6.33,5.39-8.3,9.53-1.96,4.14-2.94,9.13-2.94,14.98s.98,10.74,2.94,14.88c1.96,4.14,4.73,7.33,8.3,9.58,3.57,2.25,7.74,3.37,12.52,3.37s8.85-1.21,12.42-3.64c2.62-1.78,4.57-4.04,5.89-6.78v9.46h8.67v-41.31c0-2,.09-4.05.27-6.15.18-2.1.37-4.19.59-6.26h-8.35l-.91,9.89ZM365.67,67.81c-3,3.53-7.06,5.3-12.2,5.3s-9.12-1.77-12.15-5.3c-3.03-3.53-4.55-8.69-4.55-15.47s1.51-12.04,4.55-15.57c3.03-3.53,7.08-5.3,12.15-5.3s9.2,1.77,12.2,5.3c3,3.53,4.5,8.72,4.5,15.57s-1.5,11.93-4.5,15.47Z"/>
          <path class="cls-1" d="M416.08,0c-5.71,0-10.1,1.61-13.16,4.82-3.07,3.21-4.6,7.85-4.6,13.91v6.74h-10.49v6.74h10.49v46.99h8.67v-46.99h14.98v-6.74h-14.98v-5.99c0-2.78.39-5.07,1.18-6.85.78-1.78,1.96-3.12,3.53-4.01,1.57-.89,3.46-1.34,5.67-1.34,1.28,0,2.55.13,3.8.37,1.25.25,2.3.55,3.16.91V1.39c-1-.43-2.27-.77-3.8-1.02-1.54-.25-3.01-.38-4.44-.38Z"/>
          <path class="cls-1" d="M475.17,49.98c0-5.21-.89-9.72-2.68-13.54-1.78-3.82-4.35-6.76-7.71-8.83-3.36-2.07-7.49-3.1-12.42-3.1s-9.42,1.16-13.27,3.48c-3.85,2.32-6.85,5.56-8.99,9.74-2.14,4.17-3.21,9.08-3.21,14.72,0,8.71,2.42,15.5,7.28,20.39,4.85,4.89,11.49,7.33,19.91,7.33,3.99,0,7.79-.63,11.4-1.87,3.6-1.25,6.58-3.01,8.94-5.3l-3-6.1c-2.57,2.21-5.26,3.8-8.08,4.76-2.82.96-5.83,1.44-9.04,1.44-5.99,0-10.65-1.73-13.97-5.19-3.23-3.37-4.87-8.28-4.96-14.72h39.8v-3.21ZM439.85,36.55c3-3.75,7.17-5.62,12.52-5.62,5.07,0,8.88,1.61,11.45,4.82,2.35,2.94,3.62,6.95,3.81,11.99h-32.06c.51-4.52,1.93-8.26,4.27-11.18Z"/>
        </g>
        <g>
          <path class="cls-1" d="M65.29,22.26c-3.13-5.64-7.75-9.97-13.86-12.99-6.11-3.02-13.59-4.53-22.43-4.53H0v76.02h29.01c8.84,0,16.32-1.53,22.43-4.58,6.11-3.05,10.73-7.42,13.86-13.1,3.13-5.68,4.69-12.47,4.69-20.38s-1.56-14.79-4.69-20.43ZM46.96,60.97c-4.13,3.99-10.44,5.98-18.92,5.98h-11.21V18.44h11.21c8.48,0,14.79,1.98,18.92,5.93,4.13,3.95,6.2,10.07,6.2,18.33s-2.07,14.29-6.2,18.28Z"/>
          <polygon class="cls-1" points="135.97 17.79 135.97 4.74 83.14 4.74 83.14 80.76 135.97 80.76 135.97 67.71 99.2 67.71 99.2 48.73 133.38 48.73 133.38 35.58 99.2 35.58 99.2 17.79 135.97 17.79"/>
          <polygon class="cls-1" points="203.26 4.74 179.91 59.37 156.57 4.74 138.45 4.74 172.63 80.76 186.54 80.76 220.72 4.74 203.26 4.74"/>
        </g>
        <g>
          <path class="cls-1" d="M66.79,114.62c1.11,0,2.09.17,2.93.53.84.35,1.68.91,2.52,1.68l.67-1.29c-.75-.79-1.64-1.38-2.65-1.79-1.01-.4-2.17-.6-3.47-.6-1.78,0-3.29.37-4.54,1.12-1.24.75-2.19,1.81-2.84,3.19-.65,1.38-.98,3.03-.98,4.95s.33,3.57.98,4.96c.65,1.39,1.6,2.45,2.84,3.2,1.24.74,2.75,1.12,4.54,1.12,1.28,0,2.44-.2,3.46-.6,1.02-.4,1.91-1,2.66-1.79l-.67-1.29c-.84.77-1.68,1.33-2.52,1.68-.84.35-1.82.53-2.93.53-2.18,0-3.83-.68-4.96-2.05-1.13-1.37-1.7-3.29-1.7-5.76s.57-4.38,1.7-5.74c1.13-1.36,2.78-2.04,4.96-2.04Z"/>
          <path class="cls-1" d="M93.11,114.27c-1.22-.74-2.68-1.12-4.36-1.12s-3.18.37-4.39,1.12c-1.22.75-2.15,1.81-2.79,3.19-.64,1.38-.96,3.03-.96,4.95s.33,3.55.98,4.93c.65,1.39,1.58,2.46,2.8,3.21,1.22.75,2.67,1.13,4.37,1.13s3.1-.38,4.33-1.13c1.22-.75,2.17-1.82,2.84-3.21.67-1.39,1-3.04,1-4.96s-.33-3.54-.99-4.92c-.66-1.38-1.6-2.44-2.83-3.19ZM93.54,128.17c-1.15,1.38-2.74,2.07-4.78,2.07s-3.71-.69-4.81-2.07c-1.1-1.38-1.64-3.3-1.64-5.77s.55-4.41,1.64-5.77c1.1-1.36,2.7-2.04,4.81-2.04s3.65.68,4.79,2.04c1.14,1.36,1.71,3.29,1.71,5.77s-.57,4.39-1.72,5.77Z"/>
          <polygon class="cls-1" points="118.98 128.84 107.41 113.36 106.13 113.36 106.13 131.48 107.59 131.48 107.59 115.96 119.18 131.48 120.44 131.48 120.44 113.36 118.98 113.36 118.98 128.84"/>
          <polygon class="cls-1" points="143.21 128.84 131.64 113.36 130.36 113.36 130.36 131.48 131.82 131.48 131.82 115.96 143.41 131.48 144.67 131.48 144.67 113.36 143.21 113.36 143.21 128.84"/>
          <polygon class="cls-1" points="154.59 131.48 165.84 131.48 165.84 130.11 156.13 130.11 156.13 122.97 165.28 122.97 165.28 121.61 156.13 121.61 156.13 114.72 165.84 114.72 165.84 113.36 154.59 113.36 154.59 131.48"/>
          <path class="cls-1" d="M182.29,114.62c1.11,0,2.09.17,2.93.53.84.35,1.68.91,2.52,1.68l.67-1.29c-.75-.79-1.64-1.38-2.65-1.79-1.01-.4-2.17-.6-3.47-.6-1.78,0-3.29.37-4.54,1.12-1.24.75-2.19,1.81-2.84,3.19-.65,1.38-.98,3.03-.98,4.95s.33,3.57.98,4.96c.65,1.39,1.6,2.45,2.84,3.2,1.24.74,2.75,1.12,4.54,1.12,1.28,0,2.44-.2,3.46-.6,1.02-.4,1.91-1,2.66-1.79l-.67-1.29c-.84.77-1.68,1.33-2.52,1.68-.84.35-1.82.53-2.93.53-2.18,0-3.83-.68-4.96-2.05-1.13-1.37-1.7-3.29-1.7-5.76s.57-4.38,1.7-5.74c1.13-1.36,2.78-2.04,4.96-2.04Z"/>
          <polygon class="cls-1" points="194.98 114.75 201.56 114.75 201.56 131.48 203.15 131.48 203.15 114.75 209.71 114.75 209.71 113.36 194.98 113.36 194.98 114.75"/>
          <path class="cls-1" d="M235.45,113.36l-7.89,18.11h1.67l2.05-4.83h9.86l2.09,4.83h1.67l-8.02-18.11h-1.44ZM236.14,115.29h.05l4.36,10h-8.68l4.26-10Z"/>
          <polygon class="cls-1" points="265.98 128.84 254.41 113.36 253.13 113.36 253.13 131.48 254.59 131.48 254.59 115.96 266.18 131.48 267.44 131.48 267.44 113.36 265.98 113.36 265.98 128.84"/>
          <path class="cls-1" d="M288.12,114.4c-1.37-.69-3.05-1.04-5.04-1.04h-5.73v18.11h5.73c1.99,0,3.67-.35,5.04-1.04,1.37-.69,2.41-1.72,3.12-3.07.71-1.35,1.07-3.01,1.07-4.96s-.36-3.6-1.07-4.95c-.71-1.34-1.75-2.36-3.12-3.06ZM288.74,128.15c-1.27,1.28-3.19,1.91-5.78,1.91h-4.01v-15.31h4.01c2.59,0,4.51.63,5.78,1.9,1.27,1.27,1.9,3.19,1.9,5.76s-.63,4.47-1.9,5.74Z"/>
          <path class="cls-1" d="M320.24,122.2l-2.65-.54c-1.25-.26-2.15-.64-2.71-1.16-.56-.51-.84-1.23-.84-2.16,0-1.15.44-2.06,1.31-2.74.87-.68,2.05-1.01,3.54-1.01,1.13,0,2.14.17,3.03.5.89.33,1.74.88,2.54,1.63l.64-1.29c-.75-.75-1.66-1.32-2.71-1.71-1.05-.38-2.22-.58-3.51-.58s-2.41.21-3.39.64c-.98.43-1.74,1.04-2.29,1.82-.55.79-.82,1.71-.82,2.78,0,1.3.41,2.33,1.22,3.08.81.75,2.05,1.3,3.71,1.64l2.62.54c1.39.27,2.36.65,2.92,1.12.56.47.84,1.15.84,2.04,0,1.03-.4,1.85-1.21,2.48-.81.63-2.01.94-3.6.94-.89,0-1.69-.07-2.39-.22s-1.35-.37-1.94-.68c-.59-.31-1.19-.7-1.81-1.18l-.67,1.31c.87.72,1.87,1.27,2.98,1.64,1.11.38,2.4.57,3.85.57,1.32,0,2.46-.21,3.42-.62.96-.41,1.7-.99,2.22-1.73.52-.75.78-1.61.78-2.58,0-1.28-.41-2.27-1.23-2.97-.82-.69-2.12-1.22-3.88-1.58Z"/>
          <polygon class="cls-1" points="347.33 121.58 335.69 121.58 335.69 113.36 334.09 113.36 334.09 131.48 335.69 131.48 335.69 123 347.33 123 347.33 131.48 348.92 131.48 348.92 113.36 347.33 113.36 347.33 121.58"/>
          <path class="cls-1" d="M364.98,113.36l-7.89,18.11h1.67l2.05-4.83h9.86l2.09,4.83h1.67l-8.02-18.11h-1.44ZM365.67,115.29h.05l4.36,10h-8.68l4.26-10Z"/>
          <path class="cls-1" d="M392.93,123.47c-.33-.2-.68-.32-1.06-.4.42-.1.82-.22,1.19-.4.82-.39,1.47-.94,1.93-1.67.46-.73.69-1.61.69-2.63,0-1.59-.51-2.83-1.54-3.7-1.03-.87-2.48-1.31-4.34-1.31h-7.14v18.11h1.59v-8.07h4.63c.96,0,1.75.13,2.36.37.62.25,1.09.81,1.41,1.68l2.36,6.01h1.75l-2.52-6.3c-.33-.81-.76-1.37-1.31-1.71ZM384.25,122.07v-7.35h5.34c1.46,0,2.57.31,3.33.94.76.63,1.14,1.54,1.14,2.74s-.38,2.09-1.14,2.72c-.76.63-1.87.95-3.33.95h-5.34Z"/>
          <polygon class="cls-1" points="416.73 114.72 416.73 113.36 405.47 113.36 405.47 131.48 416.73 131.48 416.73 130.11 407.02 130.11 407.02 122.97 416.16 122.97 416.16 121.61 407.02 121.61 407.02 114.72 416.73 114.72"/>
        </g>
      </g>
    </g>
  </g>
</svg>