<?xml version="1.0" encoding="UTF-8"?>
<svg id="Layer_2" xmlns="http://www.w3.org/2000/svg" viewBox="0 0 47.39 43.31">
  <defs>
    <style>
      .cls-1 {
        fill: #1c1934;
      }
    </style>
  </defs>
  <g id="Layer_3">
    <g>
      <path class="cls-1" d="M36.06,25.18c0,2.55,0,5.1,0,7.66,0,4.83-3.03,8.9-7.7,10.1-3.52.91-6.74.14-9.49-2.29-1.6-1.42-2.63-3.19-3.14-5.28-.07-.27,0-.33.26-.33,1.98,0,3.97.02,5.95-.02,2.4-.05,4.56-2.1,4.8-4.48.04-.34.05-.68.05-1.03,0-4.19,0-8.38,0-12.58q0-.44.43-.44c2.82,0,5.64,0,8.46,0,.31,0,.39.09.39.39-.01,2.77,0,5.53,0,8.3Z"/>
      <path class="cls-1" d="M47.38,23.33c0,2.04,0,4.07,0,6.11,0,3.48-2.79,6.42-6.26,6.62-1.04.06-2.03-.08-2.98-.49-.19-.08-.26-.16-.22-.38.2-1.04.2-2.09.2-3.14,0-5.05,0-10.1,0-15.15q0-.42.41-.42c2.82,0,5.64,0,8.46,0,.34,0,.4.1.4.41-.01,2.14,0,4.29,0,6.43Z"/>
      <path class="cls-1" d="M20.4,6.2c-.51,0-1.03-.01-1.54,0-.26,0-.31-.09-.28-.32.34-2.8,2.46-5.14,5.22-5.72,3.83-.82,7.48,1.7,8.06,5.57.49,3.23-1.45,6.36-4.56,7.36q-.51.16-.51-.38c0-.89.03-1.78-.18-2.65-.56-2.23-2.62-3.85-4.92-3.85-.43,0-.86,0-1.29,0Z"/>
      <path class="cls-1" d="M40.71,4.13c2.57.01,4.62,2.08,4.61,4.66,0,2.54-2.1,4.62-4.64,4.61-2.57,0-4.64-2.1-4.63-4.69,0-2.54,2.09-4.59,4.66-4.58Z"/>
      <path class="cls-1" d="M21.55,8.25c-6.12,0-12.24.01-18.37,0C1.31,8.24-.03,9.8,0,11.44c.06,3.05.02,6.11.02,9.17,0,3.09.03,6.18-.01,9.26-.03,1.66,1.4,3.12,3.08,3.12,6.19-.02,12.37,0,18.56-.01,1.73,0,3.08-1.36,3.08-3.1,0-6.15,0-12.31,0-18.46,0-1.83-1.35-3.16-3.18-3.16ZM17.21,16.5c-1.14-.01-2.27,0-3.41-.01-.32,0-.42.07-.42.41.01,3.16,0,6.32,0,9.48q0,.42-.42.42c-.43,0-.86-.02-1.29,0-.3.02-.36-.1-.35-.37.01-1.6,0-3.19,0-4.79s0-3.19,0-4.79c0-.28-.06-.37-.35-.37-1.14.02-2.27,0-3.41.01-.27,0-.39-.05-.37-.35.02-.47.01-.94,0-1.41,0-.21.05-.3.28-.3,3.25,0,6.49,0,9.74,0,.21,0,.28.07.28.28-.01.49-.01.99,0,1.48,0,.24-.07.31-.31.31Z"/>
    </g>
  </g>
</svg>