<?xml version="1.0" encoding="UTF-8"?>
<svg id="Layer_2" data-name="Layer 2" xmlns="http://www.w3.org/2000/svg" xmlns:xlink="http://www.w3.org/1999/xlink" viewBox="0 0 486.49 128.42">
  <defs>
    <style>
      .cls-1 {
        fill: #fff;
      }

      .cls-1, .cls-2 {
        stroke-width: 0px;
      }

      .cls-2 {
        fill: url(#Cam-Đỏ);
      }
    </style>
    <linearGradient id="Cam-Đỏ" x1="75.75" y1="68.7" x2="422.74" y2="68.7" gradientUnits="userSpaceOnUse">
      <stop offset="0" stop-color="#f4ad33"/>
      <stop offset=".07" stop-color="#ef952f"/>
      <stop offset=".23" stop-color="#e86729"/>
      <stop offset=".39" stop-color="#e14224"/>
      <stop offset=".55" stop-color="#dc2520"/>
      <stop offset=".7" stop-color="#d8101e"/>
      <stop offset=".85" stop-color="#d6041c"/>
      <stop offset="1" stop-color="#d6001c"/>
    </linearGradient>
  </defs>
  <g id="Layer_1-2" data-name="Layer 1">
    <g>
      <rect class="cls-1" width="486.49" height="128.42"/>
      <g>
        <path class="cls-2" d="M75.75,82.34v-38.61h16.87c4.23,0,7.51,1,9.83,3.01,2.32,2.01,3.48,4.8,3.48,8.38,0,2.37-.52,4.4-1.56,6.08-1.04,1.68-2.53,2.97-4.46,3.86-1.94.9-4.22,1.34-6.85,1.34l.77-1.04h1.86c1.53,0,2.9.4,4.11,1.2,1.21.8,2.19,2.03,2.96,3.67l5.64,12.1h-7.78l-5.7-12.54c-.51-1.28-1.29-2.12-2.33-2.52-1.04-.4-2.29-.6-3.75-.6h-6.02v15.66h-7.06ZM82.82,61.47h8.65c2.48,0,4.37-.52,5.67-1.56s1.94-2.56,1.94-4.57-.65-3.52-1.94-4.55c-1.3-1.02-3.19-1.53-5.67-1.53h-8.65v12.21Z"/>
        <path class="cls-2" d="M126.3,82.89c-4.64,0-8.27-1.28-10.9-3.83-2.63-2.56-3.94-6.06-3.94-10.51,0-2.88.57-5.4,1.7-7.56,1.13-2.15,2.71-3.83,4.74-5.04,2.03-1.2,4.39-1.81,7.09-1.81s4.89.57,6.68,1.7c1.79,1.13,3.15,2.72,4.08,4.76.93,2.05,1.4,4.44,1.4,7.17v1.81h-20.15v-3.61h15.28l-.93.77c0-2.56-.54-4.51-1.62-5.86-1.08-1.35-2.64-2.03-4.68-2.03-2.26,0-4.01.8-5.23,2.41-1.22,1.61-1.83,3.85-1.83,6.74v.71c0,2.99.74,5.23,2.22,6.71,1.48,1.48,3.57,2.22,6.27,2.22,1.57,0,3.04-.21,4.41-.63,1.37-.42,2.67-1.1,3.92-2.05l2.03,4.6c-1.31,1.06-2.88,1.88-4.71,2.46-1.83.58-3.76.88-5.8.88Z"/>
        <path class="cls-2" d="M155.76,94.61c-2.56,0-4.87-.27-6.93-.82-2.06-.55-3.9-1.39-5.5-2.52l1.48-4.93c1.06.69,2.15,1.26,3.29,1.7,1.13.44,2.3.77,3.5.99,1.21.22,2.43.33,3.67.33,2.56,0,4.46-.63,5.72-1.89,1.26-1.26,1.89-3.06,1.89-5.39v-6.63h.55c-.58,1.9-1.76,3.41-3.53,4.55-1.77,1.13-3.81,1.7-6.11,1.7-2.48,0-4.65-.56-6.49-1.67-1.84-1.11-3.28-2.71-4.3-4.79s-1.53-4.53-1.53-7.34.51-5.25,1.53-7.31c1.02-2.06,2.46-3.65,4.3-4.76,1.84-1.11,4.01-1.67,6.49-1.67,2.34,0,4.37.56,6.11,1.67,1.73,1.11,2.89,2.62,3.48,4.52l-.49-.33.55-5.31h6.63c-.15,1.13-.26,2.28-.33,3.45-.07,1.17-.11,2.32-.11,3.45v19.66c0,4.34-1.18,7.66-3.53,9.94-2.36,2.28-5.8,3.42-10.32,3.42ZM155.65,76.43c2.19,0,3.93-.74,5.23-2.22s1.94-3.59,1.94-6.33-.65-4.84-1.94-6.3c-1.3-1.46-3.04-2.19-5.23-2.19s-4,.73-5.31,2.19c-1.31,1.46-1.97,3.56-1.97,6.3s.66,4.85,1.97,6.33,3.08,2.22,5.31,2.22Z"/>
        <path class="cls-2" d="M176.63,49.48v-6.68h7.61v6.68h-7.61ZM177.01,82.34v-27.66h6.85v27.66h-6.85Z"/>
        <path class="cls-2" d="M201.16,82.89c-2.37,0-4.56-.28-6.54-.85-1.99-.57-3.66-1.36-5.01-2.38l1.92-4.6c1.39.95,2.92,1.68,4.6,2.19,1.68.51,3.38.77,5.09.77,1.83,0,3.18-.31,4.08-.93.89-.62,1.34-1.46,1.34-2.52,0-.84-.28-1.51-.85-2-.57-.49-1.47-.87-2.71-1.12l-5.48-1.04c-2.34-.51-4.12-1.39-5.34-2.63-1.22-1.24-1.83-2.87-1.83-4.87,0-1.72.47-3.23,1.4-4.55.93-1.31,2.26-2.35,4-3.09,1.73-.75,3.77-1.12,6.11-1.12,2.04,0,3.97.27,5.78.82,1.81.55,3.33,1.37,4.57,2.46l-1.97,4.44c-1.13-.91-2.43-1.62-3.89-2.14-1.46-.51-2.88-.77-4.27-.77-1.9,0-3.29.34-4.16,1.01-.88.68-1.31,1.54-1.31,2.6,0,.8.26,1.47.79,2,.53.53,1.36.92,2.49,1.18l5.48,1.04c2.45.47,4.3,1.31,5.56,2.49,1.26,1.19,1.89,2.8,1.89,4.85,0,1.83-.49,3.4-1.48,4.71-.99,1.31-2.35,2.32-4.11,3.01-1.75.69-3.8,1.04-6.13,1.04Z"/>
        <path class="cls-2" d="M230.3,82.89c-3.29,0-5.77-.86-7.45-2.57-1.68-1.72-2.52-4.29-2.52-7.72v-12.76h-5.31v-5.15h5.31v-7.06l6.85-1.75v8.82h7.39v5.15h-7.39v12.32c0,1.9.36,3.23,1.1,4,.73.77,1.73,1.15,3.01,1.15.69,0,1.29-.05,1.78-.16.49-.11.98-.26,1.45-.44v5.42c-.62.25-1.31.45-2.05.57-.75.13-1.47.19-2.16.19Z"/>
        <path class="cls-2" d="M252.31,82.89c-4.64,0-8.27-1.28-10.9-3.83-2.63-2.56-3.94-6.06-3.94-10.51,0-2.88.57-5.4,1.7-7.56,1.13-2.15,2.71-3.83,4.74-5.04,2.03-1.2,4.39-1.81,7.09-1.81s4.89.57,6.68,1.7c1.79,1.13,3.15,2.72,4.08,4.76.93,2.05,1.4,4.44,1.4,7.17v1.81h-20.15v-3.61h15.28l-.93.77c0-2.56-.54-4.51-1.62-5.86-1.08-1.35-2.64-2.03-4.68-2.03-2.26,0-4.01.8-5.23,2.41-1.22,1.61-1.83,3.85-1.83,6.74v.71c0,2.99.74,5.23,2.22,6.71,1.48,1.48,3.57,2.22,6.27,2.22,1.57,0,3.04-.21,4.41-.63,1.37-.42,2.67-1.1,3.92-2.05l2.03,4.6c-1.31,1.06-2.88,1.88-4.71,2.46-1.83.58-3.76.88-5.8.88Z"/>
        <path class="cls-2" d="M268.91,82.34v-20.59c0-1.17-.03-2.35-.08-3.56s-.16-2.37-.3-3.5h6.63l.77,7.56h-1.09c.36-1.83.98-3.34,1.83-4.55.86-1.2,1.91-2.1,3.15-2.68,1.24-.58,2.59-.88,4.05-.88.66,0,1.19.03,1.59.08.4.05.8.16,1.21.3l-.05,6.02c-.69-.29-1.29-.47-1.78-.55-.49-.07-1.1-.11-1.83-.11-1.57,0-2.89.33-3.97.99-1.08.66-1.88,1.57-2.41,2.74-.53,1.17-.79,2.5-.79,4v14.73h-6.9Z"/>
        <path class="cls-2" d="M306.03,82.34v-38.61h5.31l22.4,28.97h-1.42v-28.97h6.57v38.61h-5.31l-22.34-28.97h1.37v28.97h-6.57Z"/>
        <path class="cls-2" d="M359.32,82.89c-2.85,0-5.31-.58-7.39-1.75-2.08-1.17-3.7-2.83-4.85-4.98-1.15-2.15-1.73-4.71-1.73-7.67s.58-5.5,1.73-7.64c1.15-2.14,2.77-3.79,4.85-4.96,2.08-1.17,4.54-1.75,7.39-1.75s5.32.58,7.42,1.75c2.1,1.17,3.72,2.82,4.87,4.96,1.15,2.14,1.73,4.68,1.73,7.64s-.58,5.51-1.73,7.67c-1.15,2.15-2.77,3.82-4.87,4.98-2.1,1.17-4.57,1.75-7.42,1.75ZM359.32,77.63c2.15,0,3.87-.76,5.15-2.27,1.28-1.51,1.92-3.81,1.92-6.87s-.64-5.35-1.92-6.85c-1.28-1.5-2.99-2.25-5.15-2.25s-3.87.75-5.15,2.25c-1.28,1.5-1.92,3.78-1.92,6.85s.64,5.36,1.92,6.87c1.28,1.52,2.99,2.27,5.15,2.27Z"/>
        <path class="cls-2" d="M386.37,82.34l-10.79-27.66h7.06l7.78,21.52h-1.42l7.89-21.52h4.87l7.83,21.52h-1.26l7.72-21.52h6.68l-10.79,27.66h-6.02l-8.27-22.02h2.9l-8.11,22.02h-6.08Z"/>
      </g>
    </g>
  </g>
</svg>