<?xml version="1.0" encoding="UTF-8"?>
<svg id="Layer_2" data-name="Layer 2" xmlns="http://www.w3.org/2000/svg" xmlns:xlink="http://www.w3.org/1999/xlink" viewBox="0 0 171.22 108.05">
  <defs>
    <style>
      .cls-1 {
        fill: url(#Cam-Đỏ);
        stroke-width: 0px;
      }
    </style>
    <linearGradient id="Cam-Đỏ" x1="75.5" y1="54.03" x2="246.72" y2="54.03" gradientUnits="userSpaceOnUse">
      <stop offset="0" stop-color="#f4ad33"/>
      <stop offset=".07" stop-color="#ef952f"/>
      <stop offset=".23" stop-color="#e86729"/>
      <stop offset=".39" stop-color="#e14224"/>
      <stop offset=".55" stop-color="#dc2520"/>
      <stop offset=".7" stop-color="#d8101e"/>
      <stop offset=".85" stop-color="#d6041c"/>
      <stop offset="1" stop-color="#d6001c"/>
    </linearGradient>
  </defs>
  <g id="Layer_1-2" data-name="Layer 1">
    <g>
      <path class="cls-1" d="M37.6,108.05c-7.33,0-14.39-1.04-21.18-3.12-6.79-2.08-12.26-4.95-16.42-8.62l7.28-17.24c4.46,3.27,9.16,5.72,14.12,7.36,4.95,1.64,10.06,2.45,15.31,2.45,6.14,0,10.75-1.14,13.82-3.42,3.07-2.28,4.61-5.65,4.61-10.11,0-4.16-1.46-7.31-4.38-9.44-2.92-2.13-7.26-3.2-13-3.2h-17.54v-18.28h15.46c4.95,0,8.92-1.16,11.89-3.49,2.97-2.33,4.46-5.52,4.46-9.59s-1.39-6.99-4.16-9.07c-2.77-2.08-6.79-3.12-12.04-3.12-10.01,0-18.93,3.32-26.75,9.96L1.63,12.19c4.46-3.86,9.88-6.86,16.28-8.99C24.3,1.07,31.01,0,38.05,0c11.29,0,20.14,2.5,26.53,7.51,6.39,5,9.59,11.96,9.59,20.88,0,6.15-1.73,11.42-5.2,15.83-3.47,4.41-8.23,7.36-14.27,8.84v-1.93c7.13,1.19,12.68,4.11,16.65,8.77,3.96,4.66,5.95,10.5,5.95,17.54,0,9.51-3.54,16.99-10.63,22.44-7.08,5.45-16.77,8.17-29.06,8.17Z"/>
      <path class="cls-1" d="M134.66,106.42v-19.17h-44.89v-16.05L138.22,1.64h18.73v68.22h14.27v17.39h-14.27v19.17h-22.29ZM134.66,69.86V28.98h3.72l-31.96,46.22v-5.35h28.24Z"/>
    </g>
  </g>
</svg>