<?xml version="1.0" encoding="UTF-8"?>
<svg id="Layer_2" data-name="Layer 2" xmlns="http://www.w3.org/2000/svg" xmlns:xlink="http://www.w3.org/1999/xlink" viewBox="0 0 486.49 128.42">
  <defs>
    <style>
      .cls-1 {
        fill: #fff;
      }

      .cls-1, .cls-2 {
        stroke-width: 0px;
      }

      .cls-2 {
        fill: url(#Cam-Đỏ);
      }
    </style>
    <linearGradient id="Cam-Đỏ" x1="18.05" y1="68.32" x2="477.14" y2="68.32" gradientUnits="userSpaceOnUse">
      <stop offset="0" stop-color="#f4ad33"/>
      <stop offset=".07" stop-color="#ef952f"/>
      <stop offset=".23" stop-color="#e86729"/>
      <stop offset=".39" stop-color="#e14224"/>
      <stop offset=".55" stop-color="#dc2520"/>
      <stop offset=".7" stop-color="#d8101e"/>
      <stop offset=".85" stop-color="#d6041c"/>
      <stop offset="1" stop-color="#d6001c"/>
    </linearGradient>
  </defs>
  <g id="Layer_1-2" data-name="Layer 1">
    <g>
      <rect class="cls-1" width="486.49" height="128.42"/>
      <g>
        <path class="cls-2" d="M31.69,82.34l-13.64-38.61h7.34l10.51,31.65h-2.19l11.34-31.65h5.26l10.51,31.65h-2.03l11.01-31.65h6.9l-13.75,38.61h-5.86l-10.19-29.68h1.2l-10.57,29.68h-5.86Z"/>
        <path class="cls-2" d="M89.19,82.89c-2.41,0-4.53-.57-6.35-1.73-1.83-1.15-3.25-2.8-4.27-4.96-1.02-2.15-1.53-4.73-1.53-7.72s.51-5.56,1.53-7.69c1.02-2.14,2.45-3.78,4.27-4.93,1.83-1.15,3.94-1.73,6.35-1.73s4.39.57,6.16,1.73c1.77,1.15,2.95,2.69,3.53,4.63h-.6l.6-5.81h6.57c-.11,1.13-.21,2.28-.3,3.45-.09,1.17-.14,2.32-.14,3.45v20.76h-6.79l-.05-5.7h.66c-.58,1.9-1.77,3.41-3.56,4.55-1.79,1.13-3.82,1.7-6.08,1.7ZM91.11,77.63c2.15,0,3.89-.76,5.2-2.27,1.31-1.51,1.97-3.81,1.97-6.87s-.66-5.35-1.97-6.85c-1.31-1.5-3.05-2.25-5.2-2.25s-3.89.75-5.2,2.25c-1.31,1.5-1.97,3.78-1.97,6.85s.65,5.36,1.94,6.87c1.3,1.52,3.04,2.27,5.23,2.27Z"/>
        <path class="cls-2" d="M124.29,82.89c-3.29,0-5.77-.86-7.45-2.57-1.68-1.72-2.52-4.29-2.52-7.72v-12.76h-5.31v-5.15h5.31v-7.06l6.85-1.75v8.82h7.39v5.15h-7.39v12.32c0,1.9.36,3.23,1.1,4,.73.77,1.73,1.15,3.01,1.15.69,0,1.29-.05,1.78-.16.49-.11.98-.26,1.45-.44v5.42c-.62.25-1.31.45-2.05.57-.75.13-1.47.19-2.16.19Z"/>
        <path class="cls-2" d="M145.65,82.89c-2.85,0-5.34-.58-7.48-1.75-2.14-1.17-3.79-2.84-4.96-5.01-1.17-2.17-1.75-4.76-1.75-7.75s.59-5.55,1.78-7.67c1.19-2.12,2.84-3.74,4.96-4.87,2.12-1.13,4.6-1.7,7.45-1.7,1.83,0,3.6.28,5.34.85,1.73.57,3.15,1.38,4.25,2.44l-2.08,4.76c-.99-.91-2.09-1.6-3.31-2.05-1.22-.46-2.42-.68-3.59-.68-2.45,0-4.35.77-5.72,2.3s-2.05,3.76-2.05,6.68.68,5.17,2.05,6.74c1.37,1.57,3.28,2.35,5.72,2.35,1.13,0,2.31-.22,3.53-.66,1.22-.44,2.35-1.11,3.37-2.03l2.08,4.71c-1.13,1.06-2.57,1.88-4.3,2.46s-3.5.88-5.28.88Z"/>
        <path class="cls-2" d="M160.55,82.34v-40.31h6.85v18.18h-.77c.84-1.97,2.14-3.48,3.89-4.52,1.75-1.04,3.76-1.56,6.02-1.56,3.29,0,5.73.92,7.34,2.77,1.61,1.84,2.41,4.65,2.41,8.41v17.03h-6.85v-16.7c0-2.15-.41-3.71-1.23-4.68-.82-.97-2.13-1.45-3.92-1.45-2.08,0-3.75.65-5.01,1.94-1.26,1.3-1.89,3.02-1.89,5.18v15.72h-6.85Z"/>
        <path class="cls-2" d="M208.52,82.34v-20.59c0-1.17-.03-2.35-.08-3.56s-.16-2.37-.3-3.5h6.63l.77,7.56h-1.09c.36-1.83.98-3.34,1.83-4.55.86-1.2,1.91-2.1,3.15-2.68,1.24-.58,2.59-.88,4.05-.88.66,0,1.19.03,1.59.08.4.05.8.16,1.21.3l-.05,6.02c-.69-.29-1.29-.47-1.78-.55-.49-.07-1.1-.11-1.83-.11-1.57,0-2.89.33-3.97.99-1.08.66-1.88,1.57-2.41,2.74-.53,1.17-.79,2.5-.79,4v14.73h-6.9Z"/>
        <path class="cls-2" d="M243.02,82.89c-4.64,0-8.27-1.28-10.9-3.83-2.63-2.56-3.94-6.06-3.94-10.51,0-2.88.57-5.4,1.7-7.56,1.13-2.15,2.71-3.83,4.74-5.04,2.03-1.2,4.39-1.81,7.09-1.81s4.89.57,6.68,1.7c1.79,1.13,3.15,2.72,4.08,4.76.93,2.05,1.4,4.44,1.4,7.17v1.81h-20.15v-3.61h15.28l-.93.77c0-2.56-.54-4.51-1.62-5.86-1.08-1.35-2.64-2.03-4.68-2.03-2.26,0-4.01.8-5.23,2.41-1.22,1.61-1.83,3.85-1.83,6.74v.71c0,2.99.74,5.23,2.22,6.71,1.48,1.48,3.57,2.22,6.27,2.22,1.57,0,3.04-.21,4.41-.63,1.37-.42,2.67-1.1,3.92-2.05l2.03,4.6c-1.31,1.06-2.88,1.88-4.71,2.46-1.83.58-3.76.88-5.8.88Z"/>
        <path class="cls-2" d="M272.38,82.89c-2.85,0-5.34-.58-7.48-1.75-2.14-1.17-3.79-2.84-4.96-5.01-1.17-2.17-1.75-4.76-1.75-7.75s.59-5.55,1.78-7.67c1.19-2.12,2.84-3.74,4.96-4.87,2.12-1.13,4.6-1.7,7.45-1.7,1.83,0,3.6.28,5.34.85,1.73.57,3.15,1.38,4.25,2.44l-2.08,4.76c-.99-.91-2.09-1.6-3.31-2.05-1.22-.46-2.42-.68-3.59-.68-2.45,0-4.35.77-5.72,2.3s-2.05,3.76-2.05,6.68.68,5.17,2.05,6.74c1.37,1.57,3.28,2.35,5.72,2.35,1.13,0,2.31-.22,3.53-.66,1.22-.44,2.35-1.11,3.37-2.03l2.08,4.71c-1.13,1.06-2.57,1.88-4.3,2.46s-3.5.88-5.28.88Z"/>
        <path class="cls-2" d="M299.21,82.89c-2.85,0-5.31-.58-7.39-1.75-2.08-1.17-3.7-2.83-4.85-4.98-1.15-2.15-1.73-4.71-1.73-7.67s.58-5.5,1.73-7.64c1.15-2.14,2.77-3.79,4.85-4.96,2.08-1.17,4.54-1.75,7.39-1.75s5.32.58,7.42,1.75c2.1,1.17,3.72,2.82,4.87,4.96,1.15,2.14,1.73,4.68,1.73,7.64s-.58,5.51-1.73,7.67c-1.15,2.15-2.77,3.82-4.87,4.98-2.1,1.17-4.57,1.75-7.42,1.75ZM299.21,77.63c2.15,0,3.87-.76,5.15-2.27,1.28-1.51,1.92-3.81,1.92-6.87s-.64-5.35-1.92-6.85c-1.28-1.5-2.99-2.25-5.15-2.25s-3.87.75-5.15,2.25c-1.28,1.5-1.92,3.78-1.92,6.85s.64,5.36,1.92,6.87c1.28,1.52,2.99,2.27,5.15,2.27Z"/>
        <path class="cls-2" d="M319.09,82.34v-20.59c0-1.17-.03-2.35-.08-3.56s-.16-2.37-.3-3.5h6.63l.77,7.56h-1.09c.36-1.83.98-3.34,1.83-4.55.86-1.2,1.91-2.1,3.15-2.68,1.24-.58,2.59-.88,4.05-.88.66,0,1.19.03,1.59.08.4.05.8.16,1.21.3l-.05,6.02c-.69-.29-1.29-.47-1.78-.55-.49-.07-1.1-.11-1.83-.11-1.57,0-2.89.33-3.97.99-1.08.66-1.88,1.57-2.41,2.74-.53,1.17-.79,2.5-.79,4v14.73h-6.9Z"/>
        <path class="cls-2" d="M350.96,82.89c-2.41,0-4.54-.57-6.38-1.73-1.84-1.15-3.28-2.8-4.3-4.96-1.02-2.15-1.53-4.73-1.53-7.72s.51-5.56,1.53-7.69c1.02-2.14,2.46-3.78,4.3-4.93,1.84-1.15,3.97-1.73,6.38-1.73s4.33.56,6.11,1.67c1.77,1.11,2.95,2.62,3.53,4.52h-.71v-18.29h6.85v40.31h-6.74v-5.86h.66c-.58,1.97-1.76,3.53-3.53,4.68-1.77,1.15-3.83,1.73-6.16,1.73ZM352.88,77.63c2.15,0,3.89-.76,5.2-2.27,1.31-1.51,1.97-3.81,1.97-6.87s-.66-5.35-1.97-6.85c-1.31-1.5-3.05-2.25-5.2-2.25s-3.9.75-5.23,2.25c-1.33,1.5-2,3.78-2,6.85s.67,5.36,2,6.87c1.33,1.52,3.08,2.27,5.23,2.27Z"/>
        <path class="cls-2" d="M373.8,49.48v-6.68h7.61v6.68h-7.61ZM374.18,82.34v-27.66h6.85v27.66h-6.85Z"/>
        <path class="cls-2" d="M388.48,82.34v-20.76c0-1.13-.04-2.28-.11-3.45-.07-1.17-.18-2.32-.33-3.45h6.63l.55,5.48h-.66c.88-1.93,2.17-3.42,3.89-4.46,1.72-1.04,3.71-1.56,5.97-1.56,3.25,0,5.7.91,7.34,2.74,1.64,1.83,2.46,4.67,2.46,8.54v16.92h-6.85v-16.59c0-2.23-.43-3.82-1.29-4.79-.86-.97-2.15-1.45-3.86-1.45-2.12,0-3.8.66-5.04,1.97-1.24,1.31-1.86,3.07-1.86,5.26v15.61h-6.85Z"/>
        <path class="cls-2" d="M434.32,94.61c-2.56,0-4.87-.27-6.93-.82-2.06-.55-3.9-1.39-5.5-2.52l1.48-4.93c1.06.69,2.15,1.26,3.29,1.7,1.13.44,2.3.77,3.5.99,1.21.22,2.43.33,3.67.33,2.56,0,4.46-.63,5.72-1.89,1.26-1.26,1.89-3.06,1.89-5.39v-6.63h.55c-.58,1.9-1.76,3.41-3.53,4.55-1.77,1.13-3.81,1.7-6.11,1.7-2.48,0-4.65-.56-6.49-1.67-1.84-1.11-3.28-2.71-4.3-4.79s-1.53-4.53-1.53-7.34.51-5.25,1.53-7.31c1.02-2.06,2.46-3.65,4.3-4.76,1.84-1.11,4.01-1.67,6.49-1.67,2.34,0,4.37.56,6.11,1.67,1.73,1.11,2.89,2.62,3.48,4.52l-.49-.33.55-5.31h6.63c-.15,1.13-.26,2.28-.33,3.45-.07,1.17-.11,2.32-.11,3.45v19.66c0,4.34-1.18,7.66-3.53,9.94-2.36,2.28-5.8,3.42-10.32,3.42ZM434.21,76.43c2.19,0,3.93-.74,5.23-2.22s1.94-3.59,1.94-6.33-.65-4.84-1.94-6.3c-1.3-1.46-3.04-2.19-5.23-2.19s-4,.73-5.31,2.19c-1.31,1.46-1.97,3.56-1.97,6.3s.66,4.85,1.97,6.33,3.08,2.22,5.31,2.22Z"/>
        <path class="cls-2" d="M465.42,82.89c-2.37,0-4.56-.28-6.54-.85-1.99-.57-3.66-1.36-5.01-2.38l1.92-4.6c1.39.95,2.92,1.68,4.6,2.19,1.68.51,3.38.77,5.09.77,1.83,0,3.18-.31,4.08-.93.89-.62,1.34-1.46,1.34-2.52,0-.84-.28-1.51-.85-2-.57-.49-1.47-.87-2.71-1.12l-5.48-1.04c-2.34-.51-4.12-1.39-5.34-2.63-1.22-1.24-1.83-2.87-1.83-4.87,0-1.72.47-3.23,1.4-4.55.93-1.31,2.26-2.35,4-3.09,1.73-.75,3.77-1.12,6.11-1.12,2.04,0,3.97.27,5.78.82,1.81.55,3.33,1.37,4.57,2.46l-1.97,4.44c-1.13-.91-2.43-1.62-3.89-2.14-1.46-.51-2.88-.77-4.27-.77-1.9,0-3.29.34-4.16,1.01-.88.68-1.31,1.54-1.31,2.6,0,.8.26,1.47.79,2,.53.53,1.36.92,2.49,1.18l5.48,1.04c2.45.47,4.3,1.31,5.56,2.49,1.26,1.19,1.89,2.8,1.89,4.85,0,1.83-.49,3.4-1.48,4.71-.99,1.31-2.35,2.32-4.11,3.01-1.75.69-3.8,1.04-6.13,1.04Z"/>
      </g>
    </g>
  </g>
</svg>