<?xml version="1.0" encoding="UTF-8"?>
<svg id="Layer_2" data-name="Layer 2" xmlns="http://www.w3.org/2000/svg" viewBox="0 0 71.93 71.93">
  <defs>
    <style>
      .cls-1 {
        fill: #fff;
        stroke-width: 0px;
      }
    </style>
  </defs>
  <g id="Layer_1-2" data-name="Layer 1">
    <g>
      <path class="cls-1" d="M35.97,54c2.24,0,5.54-6.14,6.03-15.61h-12.07c.49,9.47,3.79,15.61,6.03,15.61Z"/>
      <path class="cls-1" d="M35.97,17.94c-2.24,0-5.54,6.14-6.03,15.61h12.07c-.49-9.47-3.79-15.61-6.03-15.61Z"/>
      <path class="cls-1" d="M18.12,33.54h6.96c.25-5.02,1.27-9.98,3.01-13.77-5.31,2.59-9.15,7.7-9.97,13.77Z"/>
      <path class="cls-1" d="M35.97,0C16.1,0,0,16.1,0,35.97s16.1,35.97,35.97,35.97,35.97-16.1,35.97-35.97S55.83,0,35.97,0ZM35.97,58.85c-12.62,0-22.88-10.26-22.88-22.88s10.26-22.88,22.88-22.88,22.88,10.26,22.88,22.88-10.26,22.88-22.88,22.88Z"/>
      <path class="cls-1" d="M43.84,52.16c5.31-2.59,9.15-7.7,9.97-13.77h-6.96c-.25,5.02-1.27,9.98-3.01,13.77Z"/>
      <path class="cls-1" d="M18.12,38.39c.82,6.07,4.67,11.18,9.97,13.77-1.74-3.79-2.76-8.76-3.01-13.77h-6.96Z"/>
      <path class="cls-1" d="M43.84,19.77c1.74,3.79,2.76,8.76,3.01,13.77h6.96c-.82-6.07-4.67-11.18-9.97-13.77Z"/>
    </g>
  </g>
</svg>