<?xml version="1.0" encoding="UTF-8"?>
<svg id="Layer_2" xmlns="http://www.w3.org/2000/svg" viewBox="0 0 42.45 41.74">
  <defs>
    <style>
      .cls-1 {
        fill: #1c1934;
        fill-rule: evenodd;
      }
    </style>
  </defs>
  <g id="Layer_3">
    <path id="Mark" class="cls-1" d="M21.24,0C9.5,0,0,9.57,0,21.4c0,9.46,6.08,17.47,14.52,20.3,1.06.21,1.44-.46,1.44-1.03,0-.5-.03-2.2-.03-3.97-5.91,1.28-7.14-2.55-7.14-2.55-.95-2.48-2.36-3.12-2.36-3.12-1.93-1.31.14-1.31.14-1.31,2.15.14,3.27,2.2,3.27,2.2,1.9,3.26,4.96,2.34,6.19,1.77.18-1.38.74-2.34,1.34-2.87-4.71-.5-9.67-2.34-9.67-10.56,0-2.34.84-4.25,2.18-5.74-.21-.53-.95-2.73.21-5.67,0,0,1.79-.57,5.84,2.2,1.73-.47,3.52-.71,5.31-.71,1.79,0,3.62.25,5.31.71,4.04-2.76,5.84-2.2,5.84-2.2,1.16,2.94.42,5.14.21,5.67,1.37,1.49,2.18,3.4,2.18,5.74,0,8.22-4.96,10.03-9.71,10.56.77.67,1.44,1.95,1.44,3.97,0,2.87-.03,5.17-.03,5.88,0,.57.39,1.24,1.44,1.03,8.44-2.83,14.52-10.84,14.52-20.3.03-11.83-9.5-21.4-21.21-21.4Z"/>
  </g>
</svg>