<?xml version="1.0" encoding="UTF-8"?>
<svg id="Layer_2" xmlns="http://www.w3.org/2000/svg" viewBox="0 0 42.45 42.45">
  <defs>
    <style>
      .cls-1 {
        fill: #1c1934;
      }
    </style>
  </defs>
  <g id="Layer_3">
    <path class="cls-1" d="M21.22,0C9.5,0,0,9.5,0,21.22s9.5,21.22,21.22,21.22,21.22-9.5,21.22-21.22S32.95,0,21.22,0ZM14.22,32.82c-1.51-.02-3.02-.01-4.53,0-.24,0-.31-.06-.31-.31,0-5.38,0-10.76,0-16.14,0-.22.05-.3.29-.3,1.53,0,3.06.01,4.6,0,.29,0,.33.11.33.36,0,2.68,0,5.36,0,8.04s0,5.31,0,7.97c0,.3-.07.38-.38.38ZM11.99,13.76c-1.64,0-3.01-1.36-3.01-3,0-1.66,1.36-3.03,3.02-3.03,1.65,0,3.01,1.36,3.01,3,0,1.67-1.35,3.03-3.02,3.03ZM34.13,32.48c0,.27-.08.35-.35.34-1.51-.01-3.02-.01-4.53,0-.27,0-.32-.08-.32-.33,0-2.79.01-5.58,0-8.37,0-.7-.05-1.4-.24-2.08-.36-1.25-1.26-1.89-2.57-1.82-1.79.09-2.72.98-2.95,2.8-.05.43-.08.87-.08,1.31,0,2.71,0,5.43,0,8.14,0,.27-.07.35-.34.35-1.52-.01-3.04-.01-4.56,0-.24,0-.31-.06-.31-.31,0-5.37,0-10.74,0-16.12,0-.27.09-.33.34-.33,1.44.01,2.89.01,4.33,0,.27,0,.33.08.33.34-.01.64,0,1.28,0,1.93.35-.39.64-.79.99-1.13,1.1-1.04,2.4-1.56,3.92-1.55.84,0,1.66.07,2.47.3,1.84.53,2.91,1.8,3.42,3.6.38,1.35.45,2.74.46,4.13,0,2.93,0,5.86,0,8.8Z"/>
  </g>
</svg>