<?xml version="1.0" encoding="UTF-8"?>
<svg id="Layer_2" xmlns="http://www.w3.org/2000/svg" viewBox="0 0 321.81 200.51">
  <defs>
    <style>
      .cls-1 {
        fill: #81bc06;
      }

      .cls-2 {
        fill: #05a6f0;
      }

      .cls-3 {
        fill: #ffba08;
      }

      .cls-4 {
        fill: #737373;
      }

      .cls-5 {
        fill: #f35325;
      }
    </style>
  </defs>
  <g id="Layer_3">
    <g>
      <g>
        <path class="cls-5" d="M101.6,0h56.36v56.36h-56.36V0Z"/>
        <path class="cls-1" d="M163.85,0h56.36v56.36h-56.36V0Z"/>
        <path class="cls-2" d="M101.6,62.25h56.36v56.36h-56.36v-56.36Z"/>
        <path class="cls-3" d="M163.85,62.25h56.36v56.36h-56.36v-56.36Z"/>
      </g>
      <g>
        <path class="cls-4" d="M33.63,178.16l-2.66,7.52h-.22c-.44-1.7-1.25-4.28-2.58-7.38l-14.24-35.77H0v57.01h9.22v-35.18c0-2.21,0-4.72-.07-7.82-.07-1.55-.22-2.73-.3-3.61h.22c.44,2.21.96,3.84,1.33,4.87l17.11,41.6h6.49l16.96-41.97c.37-.96.74-2.88,1.11-4.5h.22c-.22,4.2-.37,7.97-.44,10.25v36.14h9.81v-56.94h-13.42l-14.6,35.77ZM70.96,158.47h9.59v40.86h-9.59v-40.86ZM75.82,141.21c-1.62,0-2.95.59-4.06,1.62-1.11,1.03-1.7,2.36-1.7,3.98s.59,2.88,1.7,3.91c1.11,1.03,2.43,1.55,4.06,1.55s3.02-.59,4.06-1.55c1.11-1.03,1.7-2.36,1.7-3.91s-.59-2.88-1.7-3.98c-.96-1.03-2.36-1.62-4.06-1.62M114.55,158.1c-1.77-.37-3.61-.59-5.38-.59-4.35,0-8.33.96-11.65,2.88-3.32,1.92-5.97,4.57-7.67,7.89-1.77,3.39-2.66,7.3-2.66,11.8,0,3.91.89,7.38,2.58,10.55,1.7,3.1,4.06,5.61,7.23,7.3,3.02,1.7,6.56,2.58,10.55,2.58,4.57,0,8.48-.96,11.58-2.73l.07-.07v-8.85l-.37.3c-1.4,1.03-3.02,1.92-4.65,2.43-1.7.59-3.25.89-4.57.89-3.84,0-6.86-1.11-9-3.54-2.21-2.36-3.32-5.61-3.32-9.66s1.11-7.52,3.39-9.96c2.29-2.43,5.31-3.69,9-3.69,3.1,0,6.27,1.03,9.15,3.1l.37.3v-9.37l-.07-.07c-1.25-.52-2.66-1.11-4.57-1.48M146.19,157.8c-2.36,0-4.57.74-6.49,2.29-1.62,1.33-2.73,3.25-3.69,5.53h-.07v-7.15h-9.59v40.86h9.59v-20.87c0-3.54.74-6.49,2.36-8.63,1.62-2.21,3.69-3.32,6.2-3.32.89,0,1.77.22,2.88.37,1.03.3,1.77.59,2.29.96l.37.3v-9.59l-.22-.07c-.66-.44-1.99-.66-3.61-.66M172.3,157.58c-6.71,0-12.1,1.99-15.86,5.9-3.84,3.91-5.68,9.29-5.68,16.08,0,6.34,1.92,11.51,5.61,15.27,3.69,3.69,8.7,5.61,14.97,5.61s11.8-1.99,15.56-5.97c3.84-3.98,5.68-9.29,5.68-15.86s-1.77-11.65-5.38-15.42c-3.47-3.76-8.56-5.61-14.9-5.61M179.97,189c-1.77,2.29-4.57,3.39-8.04,3.39s-6.27-1.11-8.26-3.54c-1.99-2.29-2.95-5.61-2.95-9.81s1.03-7.67,2.95-10.03c1.99-2.36,4.72-3.54,8.19-3.54s6.05,1.11,7.97,3.39c1.92,2.29,2.95,5.61,2.95,9.96-.15,4.43-.96,7.89-2.8,10.18M213.97,175.43c-3.02-1.25-4.94-2.21-5.83-3.02-.74-.74-1.11-1.77-1.11-3.1,0-1.11.44-2.21,1.55-2.95,1.11-.74,2.36-1.11,4.2-1.11,1.62,0,3.32.3,4.94.74,1.62.44,3.1,1.11,4.28,1.99l.37.3v-9l-.22-.07c-1.11-.44-2.58-.89-4.35-1.25-1.77-.3-3.39-.44-4.72-.44-4.57,0-8.33,1.11-11.28,3.54-2.95,2.29-4.35,5.38-4.35,9,0,1.92.3,3.61.96,5.02.66,1.4,1.62,2.73,2.95,3.84,1.33,1.03,3.25,2.21,5.9,3.32,2.21.96,3.91,1.7,4.94,2.29,1.03.59,1.7,1.25,2.21,1.77.37.59.59,1.33.59,2.29,0,2.73-2.07,4.06-6.27,4.06-1.62,0-3.32-.3-5.31-.96-1.99-.66-3.84-1.62-5.38-2.73l-.37-.3v9.37l.22.07c1.4.66,3.1,1.11,5.16,1.62,2.07.37,3.91.66,5.53.66,4.94,0,9-1.11,11.88-3.54,2.95-2.36,4.5-5.38,4.5-9.29,0-2.73-.74-5.16-2.36-7.01-2.14-1.77-4.79-3.61-8.63-5.09M250.26,157.58c-6.71,0-12.1,1.99-15.86,5.9s-5.68,9.29-5.68,16.08c0,6.34,1.92,11.51,5.61,15.27,3.69,3.69,8.7,5.61,14.97,5.61s11.8-1.99,15.56-5.97c3.84-3.98,5.68-9.29,5.68-15.86s-1.77-11.65-5.38-15.42c-3.47-3.76-8.56-5.61-14.9-5.61M257.86,189c-1.77,2.29-4.57,3.39-8.04,3.39s-6.27-1.11-8.26-3.54c-1.99-2.29-2.95-5.61-2.95-9.81s1.03-7.67,2.95-10.03c1.99-2.36,4.72-3.54,8.19-3.54s6.05,1.11,7.97,3.39c1.92,2.29,2.95,5.61,2.95,9.96s-.96,7.89-2.8,10.18"/>
        <path class="cls-4" d="M321.81,166.36v-7.89h-9.66v-12.1l-.3.07-9.15,2.73-.22.07v9.22h-14.46v-5.16c0-2.36.59-4.2,1.62-5.38,1.03-1.18,2.58-1.77,4.5-1.77,1.33,0,2.73.3,4.28.96l.37.22v-8.33l-.22-.07c-1.33-.44-3.1-.74-5.38-.74-2.88,0-5.38.66-7.67,1.77-2.29,1.25-3.98,2.95-5.24,5.24-1.25,2.21-1.92,4.72-1.92,7.6v5.68h-6.71v7.82h6.71v33.04h9.66v-32.97h14.46v21.02c0,8.63,4.06,12.98,12.17,12.98,1.33,0,2.73-.22,4.06-.44,1.4-.3,2.43-.66,3.02-.96l.07-.07v-7.89l-.37.3c-.59.37-1.11.66-1.99.89-.74.22-1.4.3-1.92.3-1.92,0-3.25-.44-4.2-1.55-.89-1.03-1.33-2.73-1.33-5.24v-19.32h9.81Z"/>
      </g>
    </g>
  </g>
</svg>