<?xml version="1.0" encoding="UTF-8"?>
<svg id="Layer_2" xmlns="http://www.w3.org/2000/svg" viewBox="0 0 196.93 196.93">
  <defs>
    <style>
      .cls-1 {
        fill: #d6001c;
      }
    </style>
  </defs>
  <g id="Layer_3">
    <path class="cls-1" d="M0,.01h196.92s.01,196.91.01,196.91H.01S0,.01,0,.01ZM187.87,187.86V9.06s-178.82.01-178.82.01v178.8s178.82-.01,178.82-.01ZM48.99,75.7h-8.24s0,25,0,25h-7.33s0-25,0-25h-8.24s0-7.05,0-7.05h23.81s0,7.05,0,7.05ZM72.61,89.24c0-6.81,5.17-12.07,12.12-12.07,4.44,0,8.37,2.33,10.34,5.85l-5.99,3.48c-.78-1.6-2.42-2.56-4.44-2.56-2.97,0-5.17,2.15-5.17,5.3,0,3.16,2.2,5.3,5.17,5.3,2.01,0,3.7-.96,4.44-2.56l5.99,3.43c-1.97,3.57-5.85,5.9-10.33,5.9-6.95,0-12.12-5.26-12.12-12.07ZM91.37,33.69c-4.76,0-8.97,2.51-8.97,7.5,0,7.92,11.25,6.02,11.25,9.1,0,.92-.82,1.54-2.47,1.54-2.06,0-3.61-1.49-4.37-2.55l-5.46,3.11c1.92,3.69,5.26,5.44,9.83,5.44,4.94,0,9.51-2.24,9.51-7.5,0-8.46-11.25-6.23-11.25-9.33,0-1.22,3.1-2.52,5.57.42l5.28-2.84c-1.92-3.25-5.21-4.89-8.92-4.89ZM126,43.16v14.08s-6.86,0-6.86,0v-13.07c0-2.83-1.78-4.16-3.98-4.16-2.51,0-4.25,1.46-4.25,4.71v12.52s-6.86,0-6.86,0V25.19s6.86,0,6.86,0v11.3c1.24-1.69,3.52-2.79,6.54-2.79,4.62,0,8.55,3.29,8.55,9.47ZM119.77,86.62v14.08s-6.86,0-6.86,0v-13.07c0-2.83-1.78-4.16-3.98-4.16-2.51,0-4.25,1.46-4.25,4.71v12.52s-6.86,0-6.86,0v-32.05s6.86,0,6.86,0v11.3c1.24-1.69,3.52-2.79,6.54-2.79,4.62,0,8.55,3.29,8.55,9.47ZM78.56,34.15v23.09s-6.87,0-6.87,0v-2.15c-1.51,1.74-3.75,2.79-6.82,2.79-6,0-10.94-5.26-10.94-12.09,0-6.82,4.94-12.09,10.94-12.09,3.07,0,5.31,1.05,6.82,2.79v-2.35s6.87,0,6.87,0ZM71.69,45.79c0-3.43-2.29-5.59-5.45-5.59-3.16,0-5.45,2.15-5.45,5.59,0,3.43,2.29,5.59,5.45,5.59,3.16,0,5.45-2.15,5.45-5.59ZM50.36,25.19v32.05s-5.47,0-5.47,0l-12.39-17.44v17.44s-7.32,0-7.32,0V25.19s5.49,0,5.49,0l12.36,17.36v-17.36s7.32,0,7.32,0ZM69.96,89.23c0,.82-.07,1.62-.2,2.37h-16.42c.69,2.45,2.74,4.09,5.61,4.09,2.13,0,3.47-1.17,4.02-1.78l5.49,3.15c-2.23,2.8-5.49,4.24-9.61,4.24-7.82,0-12.67-5.26-12.67-12.07,0-6.81,4.94-12.07,12.16-12.07,6.68,0,11.61,5.17,11.62,12.07ZM53.4,86.61h9.68c-.79-2.47-2.78-3.37-4.78-3.37-2.51,0-4.22,1.19-4.91,3.37ZM124.79,100.7h7.99s0-7.99,0-7.99h-7.99s0,7.99,0,7.99Z"/>
  </g>
</svg>